<svg width="15" height="16" viewBox="0 0 15 16" fill="none" xmlns="http://www.w3.org/2000/svg">
<path d="M7.66667 14.6667C9.5076 14.6667 11.1743 13.9205 12.3807 12.7141C13.5871 11.5076 14.3333 9.84097 14.3333 8.00004C14.3333 6.15911 13.5871 4.49244 12.3807 3.28599C11.1743 2.07957 9.5076 1.33337 7.66667 1.33337C5.82573 1.33337 4.15907 2.07957 2.95262 3.28599C1.74619 4.49244 1 6.15911 1 8.00004C1 9.84097 1.74619 11.5076 2.95262 12.7141C4.15907 13.9205 5.82573 14.6667 7.66667 14.6667Z" stroke="#D13333" stroke-width="1.33333"/>
<path fill-rule="evenodd" clip-rule="evenodd" d="M7.66536 12.3333C8.1256 12.3333 8.4987 11.9602 8.4987 11.5C8.4987 11.0397 8.1256 10.6666 7.66536 10.6666C7.20513 10.6666 6.83203 11.0397 6.83203 11.5C6.83203 11.9602 7.20513 12.3333 7.66536 12.3333Z" fill="#D13333"/>
<path d="M7.66602 4V9.33333" stroke="#D13333" stroke-width="1.33333" stroke-linecap="round"/>
</svg>
