<svg width="24" height="24" viewBox="0 0 24 24" fill="none" xmlns="http://www.w3.org/2000/svg">
<g opacity="0.7">
<path d="M15.2667 11.5576L16.0875 12.5343C16.8411 13.4311 17.4313 14.4534 17.8312 15.5545L18.0249 16.0879C18.1848 16.5284 18.4209 16.9373 18.7224 17.296L19.8431 18.6297C20.0432 18.8678 19.9797 19.2288 19.7103 19.3843L16.7559 21.0901C16.4865 21.2456 16.1421 21.1201 16.0359 20.8278L15.4413 19.1904C15.2813 18.7499 15.0453 18.341 14.7438 17.9823L14.4028 17.5765C13.6335 16.661 13.0346 15.6149 12.6346 14.488L12.219 13.3172M15.2667 11.5576L12.219 13.3172M15.2667 11.5576L15.2067 11.4973C14.2896 10.5763 13.6324 9.4291 13.3017 8.17213V8.17213C13.296 8.15037 13.2953 8.12758 13.2997 8.10552L13.31 8.05464C13.6428 6.4023 15.0474 5.18179 16.73 5.08289L20.2032 4.87873V4.87873C18.1837 2.49515 14.8157 1.76375 11.9894 3.095L11.6357 3.26161L9.19575 4.67032C8.51014 5.06616 7.89817 5.57761 7.38691 6.18206V6.18206C6.72218 6.96794 5.73984 7.41401 4.71066 7.39731L4.58147 7.39522C4.5144 7.39413 4.44829 7.41127 4.39021 7.44481L3.5047 7.95605C3.0264 8.2322 2.86253 8.84379 3.13867 9.32208L4.63867 11.9202C4.91481 12.3984 5.5264 12.5623 6.0047 12.2862L6.89709 11.771C6.9506 11.7401 6.99431 11.6947 7.02321 11.6401L7.45542 10.8236C7.7072 10.3479 8.18286 10.0323 8.71897 9.9851L9.34067 9.93038C9.89653 9.88145 10.4449 10.0848 10.8345 10.4844V10.4844C11.3759 11.0398 11.7697 11.7219 11.98 12.4685L12.219 13.3172" stroke="white" stroke-width="1.5" stroke-linecap="round"/>
</g>
</svg>
