<svg width="37" height="37" viewBox="0 0 37 37" fill="none" xmlns="http://www.w3.org/2000/svg">
<path d="M29.4955 8.43629C33.102 13.7645 34.8832 19.7746 34.2173 26.6936C34.2146 26.7229 34.1994 26.7498 34.1754 26.7674C31.4443 28.7826 28.7981 30.0055 26.1891 30.8166C26.1688 30.8227 26.147 30.8224 26.1269 30.8156C26.1068 30.8087 26.0893 30.7958 26.0769 30.7784C25.4742 29.9357 24.9265 29.0473 24.4467 28.1143C24.4191 28.0594 24.4443 27.9932 24.501 27.9715C25.3708 27.6422 26.1979 27.2475 26.9934 26.7803C27.0561 26.7434 27.0601 26.6531 27.0022 26.6098C26.8334 26.4839 26.6661 26.3515 26.506 26.2191C26.4761 26.1947 26.4358 26.1898 26.4018 26.2063C21.2369 28.6029 15.5789 28.6029 10.3529 26.2063C10.319 26.191 10.2787 26.1963 10.2495 26.2203C10.0899 26.3527 9.9222 26.4839 9.75494 26.6098C9.69706 26.6531 9.70185 26.7434 9.76492 26.7803C10.5605 27.2387 11.3876 27.6422 12.2562 27.9731C12.3125 27.9948 12.3392 28.0594 12.3113 28.1143C11.8418 29.0485 11.2942 29.9369 10.6802 30.7796C10.6535 30.8137 10.6096 30.8294 10.5681 30.8166C7.97142 30.0055 5.32527 28.7826 2.59409 26.7674C2.57134 26.7498 2.55497 26.7217 2.55258 26.6924C1.99613 20.7076 3.13019 14.6478 7.27006 8.43509C7.28004 8.41865 7.29521 8.40581 7.31277 8.39819C9.34978 7.45881 11.5321 6.76771 13.813 6.37303C13.8545 6.36661 13.896 6.38586 13.9176 6.42277C14.1994 6.92414 14.5215 7.56711 14.7395 8.09255C17.1437 7.72354 19.5855 7.72354 22.04 8.09255C22.258 7.57834 22.5689 6.92414 22.8496 6.42277C22.8596 6.40446 22.8751 6.38979 22.8938 6.38086C22.9126 6.37193 22.9337 6.36919 22.9542 6.37303C25.2363 6.76892 27.4186 7.46001 29.454 8.39819C29.4719 8.40581 29.4867 8.41865 29.4955 8.43629ZM15.9618 19.8155C15.9869 18.0463 14.7031 16.5823 13.0917 16.5823C11.4934 16.5823 10.222 18.0334 10.222 19.8155C10.222 21.5972 11.5185 23.0484 13.0917 23.0484C14.6904 23.0484 15.9618 21.5972 15.9618 19.8155ZM26.5727 19.8155C26.5978 18.0463 25.3141 16.5823 23.703 16.5823C22.1043 16.5823 20.8329 18.0334 20.8329 19.8155C20.8329 21.5972 22.1294 23.0484 23.703 23.0484C25.3141 23.0484 26.5727 21.5972 26.5727 19.8155Z" fill="white"/>
</svg>
