<svg width="36" height="36" viewBox="0 0 36 36" fill="none" xmlns="http://www.w3.org/2000/svg">
  <path fill-rule="evenodd" clip-rule="evenodd"
    d="M20.0776 6.41182L30.9737 11.8598C31.4772 12.1116 31.4851 12.8273 30.9872 13.0901L16.8358 20.5589C16.0468 20.9753 15.1053 20.9857 14.3073 20.5867L5.42222 16.1441C4.33979 15.7092 3.12948 16.5035 3.12948 17.6998C3.12948 18.6616 3.6729 19.5408 4.53317 19.971L13.4412 24.4249C13.9849 23.8713 14.7421 23.5278 15.5795 23.5278C16.3929 23.5278 17.1307 23.8519 17.6706 24.378L28.7659 18.5222C28.7355 18.3509 28.7197 18.1747 28.7197 17.9947C28.7197 16.3395 30.0615 14.9978 31.7167 14.9978C33.3719 14.9978 34.7137 16.3395 34.7137 17.9947C34.7137 19.65 33.3719 20.9918 31.7167 20.9918C30.9074 20.9918 30.1729 20.671 29.6337 20.1496L18.5322 26.0087C18.5613 26.1764 18.5765 26.3489 18.5765 26.5249C18.5765 28.1801 17.2347 29.5219 15.5795 29.5219C13.9243 29.5219 12.5825 28.1801 12.5825 26.5249C12.5825 26.3718 12.5939 26.2214 12.6161 26.0744L3.57907 21.556C2.17321 20.8531 1.28516 19.4162 1.28516 17.8443V16.9688C1.28516 15.7718 1.94769 14.673 3.00639 14.1143L17.5492 6.4396C18.3382 6.02316 19.2796 6.01282 20.0776 6.41182ZM15.5795 27.6776C16.2161 27.6776 16.7322 27.1615 16.7322 26.5249C16.7322 25.8883 16.2161 25.3722 15.5795 25.3722C14.9429 25.3722 14.4268 25.8883 14.4268 26.5249C14.4268 27.1615 14.9429 27.6776 15.5795 27.6776ZM32.8694 17.9947C32.8694 18.6314 32.3533 19.1475 31.7167 19.1475C31.0801 19.1475 30.564 18.6314 30.564 17.9947C30.564 17.3581 31.0801 16.8421 31.7167 16.8421C32.3533 16.8421 32.8694 17.3581 32.8694 17.9947Z"
    fill="white" />
</svg>