<svg width="36" height="36" viewBox="0 0 36 36" fill="none" xmlns="http://www.w3.org/2000/svg">
  <path fill-rule="evenodd" clip-rule="evenodd"
    d="M18.0016 3.24915C14.3402 3.25105 10.7988 4.54784 8.01079 6.90766C5.22273 9.26747 3.36977 12.5364 2.78324 16.13C2.1967 19.7235 2.91482 23.4074 4.80922 26.5228C6.70361 29.6382 9.65074 31.982 13.1236 33.1352C13.8898 33.2774 14.1784 32.8025 14.1784 32.3988C14.1784 31.995 14.1631 30.8243 14.158 29.5445C9.86738 30.4714 8.96074 27.7339 8.96074 27.7339C8.26097 25.9563 7.24962 25.4891 7.24962 25.4891C5.85008 24.5394 7.35434 24.5571 7.35434 24.5571C8.90456 24.6663 9.71926 26.1392 9.71926 26.1392C11.0933 28.483 13.3279 27.805 14.2065 27.4089C14.3444 26.416 14.7454 25.7405 15.1872 25.357C11.7598 24.9711 8.15881 23.6557 8.15881 17.7795C8.13757 16.2556 8.70631 14.7818 9.74735 13.6632C9.58901 13.2772 9.06034 11.718 9.89803 9.60015C9.89803 9.60015 11.1929 9.18877 14.1401 11.172C16.668 10.4847 19.3352 10.4847 21.8631 11.172C24.8078 9.18877 26.1 9.60015 26.1 9.60015C26.9403 11.7129 26.4116 13.2721 26.2533 13.6632C27.2976 14.782 27.8676 16.2583 27.8444 17.7846C27.8444 23.6734 24.2357 24.9711 20.8032 25.3494C21.3549 25.8268 21.8478 26.7588 21.8478 28.191C21.8478 30.2428 21.8299 31.8934 21.8299 32.3988C21.8299 32.8076 22.1083 33.285 22.8898 33.1352C26.3631 31.9819 29.3105 29.6377 31.2048 26.5217C33.0992 23.4058 33.817 19.7214 33.2298 16.1275C32.6425 12.5336 30.7887 9.2646 27.9997 6.90519C25.2107 4.54578 21.6685 3.24984 18.0067 3.24915H18.0016Z"
    fill="white" />
  <path
    d="M6.81733 26.448C6.77858 26.5369 6.63551 26.5636 6.51926 26.5014C6.40302 26.4391 6.31659 26.3235 6.35832 26.2317C6.40004 26.1398 6.54013 26.1161 6.65638 26.1783C6.77262 26.2405 6.86203 26.3591 6.81733 26.448Z"
    fill="white" />
  <path
    d="M7.54684 27.2571C7.48512 27.288 7.4145 27.2966 7.34707 27.2815C7.27965 27.2664 7.21962 27.2284 7.17725 27.1741C7.061 27.0496 7.03715 26.8777 7.12657 26.8007C7.21598 26.7236 7.37695 26.7592 7.49319 26.8837C7.60944 27.0081 7.63626 27.18 7.54684 27.2571Z"
    fill="white" />
  <path
    d="M8.25728 28.2854C8.147 28.3624 7.95921 28.2854 7.85489 28.1313C7.82604 28.1036 7.8031 28.0705 7.78743 28.0338C7.77176 27.9971 7.76367 27.9577 7.76367 27.9179C7.76367 27.878 7.77176 27.8386 7.78743 27.8019C7.8031 27.7653 7.82604 27.7321 7.85489 27.7045C7.96517 27.6304 8.15296 27.7045 8.25728 27.8556C8.3616 28.0068 8.36459 28.2083 8.25728 28.2854Z"
    fill="white" />
  <path
    d="M9.21942 29.2813C9.12106 29.391 8.92136 29.3613 8.75742 29.2131C8.59349 29.065 8.55473 28.8634 8.65309 28.7567C8.75145 28.65 8.95116 28.6797 9.12105 28.8249C9.29095 28.9701 9.32374 29.1746 9.21942 29.2813Z"
    fill="white" />
  <path
    d="M10.5693 29.8621C10.5246 30.0014 10.3219 30.0636 10.1192 30.0043C9.9165 29.9451 9.78237 29.7791 9.82112 29.6368C9.85987 29.4946 10.0655 29.4294 10.2712 29.4946C10.4769 29.5598 10.608 29.7169 10.5693 29.8621Z"
    fill="white" />
  <path
    d="M12.0415 29.9629C12.0415 30.1081 11.8746 30.2326 11.66 30.2355C11.4454 30.2385 11.2695 30.12 11.2695 29.9747C11.2695 29.8295 11.4364 29.705 11.651 29.7021C11.8656 29.6991 12.0415 29.8147 12.0415 29.9629Z"
    fill="white" />
  <path
    d="M13.4136 29.7347C13.4404 29.88 13.2914 30.0311 13.0768 30.0667C12.8622 30.1022 12.6744 30.0163 12.6476 29.874C12.6207 29.7318 12.7757 29.5777 12.9844 29.5392C13.193 29.5006 13.3868 29.5895 13.4136 29.7347Z"
    fill="white" />
</svg>