<svg width="373" height="108" viewBox="0 0 373 108" fill="none" xmlns="http://www.w3.org/2000/svg">
<path fill-rule="evenodd" clip-rule="evenodd" d="M47.1582 0.774902V33.1728C47.1582 47.2314 35.7616 58.6282 21.7031 58.6282H11.2897L21.7031 54C33.2055 54 42.53 44.6753 42.53 33.1728V12.3456L47.1582 0.774902ZM39.0589 13.2479C17.2896 17.553 0.875 36.7522 0.875 59.7853C0.875 85.9855 22.1142 107.225 48.314 107.225C74.5138 107.225 95.753 85.9855 95.753 59.7853C95.753 36.7531 79.3396 17.5545 57.5716 13.2484V17.5816C76.9802 21.8195 91.5114 39.1054 91.5114 59.7853C91.5114 83.6429 72.1713 102.983 48.314 102.983C24.4567 102.983 5.1166 83.6429 5.1166 59.7853C5.1166 39.1045 19.649 21.818 39.0589 17.581V13.2479ZM47.1584 86.3967V96.8103L42.5302 86.3967C42.5302 74.8941 33.2057 65.5695 21.7033 65.5695L11.2899 60.9412H21.7033C35.7618 60.9412 47.1584 72.338 47.1584 86.3967ZM49.4701 0.774902V33.1728C49.4701 47.2314 60.8667 58.6282 74.9252 58.6282H85.3386L74.9252 54C63.4228 54 54.0983 44.6753 54.0983 33.1728V12.3456L49.4701 0.774902ZM49.4701 86.3969V96.8105L54.0983 86.3969C54.0983 74.8943 63.4228 65.5697 74.9252 65.5697L85.3386 60.9414H74.9252C60.8667 60.9414 49.4701 72.3382 49.4701 86.3969ZM231.154 39.1151L230.132 30.9846C227.892 30.1731 225.734 29.5078 223.657 28.9884C221.612 28.4691 219.388 28.2095 216.987 28.2095C214.325 28.2095 211.826 28.7126 209.489 29.7187C207.185 30.6924 205.156 32.0556 203.403 33.8083C201.683 35.5286 200.32 37.5571 199.314 39.8941C198.34 42.231 197.853 44.7627 197.853 47.4891C197.853 50.0856 198.324 52.5362 199.265 54.8406C200.239 57.1126 201.586 59.125 203.306 60.8777C205.059 62.5979 207.152 63.9611 209.586 64.9673C212.021 65.9735 214.698 66.4765 217.62 66.4765C219.892 66.4765 222.082 66.2169 224.192 65.6976C226.334 65.1783 228.59 64.3993 230.959 63.3607V61.9001L230.18 61.1211V54.8406C230.18 54.0617 230.229 53.4612 230.326 53.0392C230.456 52.5849 230.667 52.244 230.959 52.0168C231.251 51.7896 231.625 51.6436 232.079 51.5787C232.533 51.5138 233.101 51.4813 233.783 51.4813V49.1931C232.907 49.2255 231.884 49.258 230.716 49.2904H227.113H223.462C222.261 49.258 221.174 49.2255 220.2 49.1931V51.53C221.141 51.53 221.904 51.5624 222.488 51.6274C223.105 51.6923 223.575 51.8383 223.9 52.0655C224.257 52.2603 224.5 52.5849 224.63 53.0392C224.76 53.4612 224.825 54.0617 224.825 54.8406V62.0461C224.663 62.176 224.419 62.3545 224.095 62.5817C223.77 62.7764 223.332 62.9712 222.78 63.1659C222.261 63.3607 221.612 63.5392 220.833 63.7015C220.054 63.8313 219.129 63.8962 218.058 63.8962C215.786 63.8962 213.757 63.4418 211.972 62.533C210.187 61.5917 208.678 60.3421 207.444 58.7842C206.211 57.2262 205.27 55.4411 204.621 53.4287C203.971 51.4164 203.647 49.3229 203.647 47.1483C203.647 45.1035 203.955 43.1073 204.572 41.1599C205.221 39.18 206.146 37.4273 207.347 35.9018C208.548 34.3439 210.025 33.1105 211.777 32.2017C213.53 31.2604 215.526 30.7898 217.766 30.7898C220.524 30.7898 222.78 31.4227 224.533 32.6886C226.286 33.9544 227.486 36.0966 228.136 39.1151H231.154ZM145.012 56.8367L142.87 65.6976C141.767 65.6651 140.501 65.6327 139.073 65.6002H134.545C132.955 65.5677 131.315 65.5515 129.628 65.5515C127.94 65.5515 126.285 65.5677 124.662 65.6002H120.085C118.657 65.6327 117.375 65.6651 116.239 65.6976V63.458C117.278 63.4256 118.089 63.3607 118.673 63.2633C119.29 63.1659 119.761 62.9549 120.085 62.6304C120.41 62.3058 120.605 61.8352 120.67 61.2185C120.767 60.6018 120.816 59.7579 120.816 58.6868V35.561C120.816 34.5549 120.767 33.7759 120.67 33.2241C120.605 32.6399 120.41 32.2017 120.085 31.9096C119.793 31.6175 119.339 31.439 118.722 31.374C118.105 31.2767 117.278 31.228 116.239 31.228V28.8424C116.953 28.9073 117.959 28.956 119.258 28.9884H123.396H127.632C128.995 28.956 130.066 28.9073 130.845 28.8424V31.228C129.806 31.228 128.979 31.2767 128.362 31.374C127.745 31.439 127.275 31.6175 126.95 31.9096C126.625 32.2017 126.414 32.6399 126.317 33.2241C126.22 33.7759 126.171 34.5386 126.171 35.5123V58.6381C126.171 59.6768 126.268 60.5044 126.463 61.1211C126.658 61.7053 127.047 62.1435 127.632 62.4356C128.216 62.7277 129.027 62.9225 130.066 63.0199C131.137 63.0848 132.549 63.1172 134.301 63.1172C135.567 63.1172 136.606 63.0523 137.417 62.9225C138.261 62.7602 138.959 62.4681 139.511 62.0461C140.095 61.5917 140.566 60.9588 140.923 60.1474C141.312 59.3035 141.702 58.2 142.091 56.8367H145.012ZM166.369 31.5688V45.1521H172.65C173.169 45.1521 173.607 45.1035 173.964 45.0061C174.321 44.9087 174.597 44.6977 174.792 44.3732C175.019 44.0486 175.165 43.6104 175.23 43.0587C175.328 42.4744 175.376 41.6954 175.376 40.7217H178.346V53.1366H175.376C175.376 52.0331 175.344 51.1567 175.279 50.5076C175.214 49.826 175.084 49.3229 174.889 48.9983C174.695 48.6738 174.419 48.4628 174.062 48.3654C173.705 48.268 173.218 48.2194 172.601 48.2194H166.369V58.9789C166.369 59.9202 166.418 60.6667 166.516 61.2185C166.645 61.7702 166.889 62.1922 167.246 62.4843C167.603 62.744 168.106 62.9225 168.755 63.0199C169.437 63.0848 170.345 63.1172 171.481 63.1172H174.938C176.107 63.1172 177.064 63.0361 177.811 62.8738C178.59 62.7115 179.239 62.4032 179.758 61.9488C180.31 61.4619 180.764 60.8128 181.121 60.0013C181.511 59.1899 181.916 58.135 182.338 56.8367H185.503C185.048 58.2649 184.594 59.7417 184.14 61.2672C183.685 62.7927 183.296 64.2695 182.971 65.6976C180.829 65.6651 178.606 65.6327 176.301 65.6002H169.437H162.669C160.43 65.6327 158.288 65.6651 156.243 65.6976V63.4093C157.314 63.4093 158.158 63.3607 158.775 63.2633C159.391 63.1659 159.862 62.9549 160.186 62.6304C160.543 62.3058 160.771 61.8514 160.868 61.2672C160.965 60.6829 161.014 59.904 161.014 58.9302V35.415C161.014 34.4413 160.965 33.6785 160.868 33.1267C160.771 32.575 160.56 32.1692 160.235 31.9096C159.911 31.6175 159.424 31.439 158.775 31.374C158.158 31.3091 157.314 31.2767 156.243 31.2767V28.9884C158.255 29.0209 160.333 29.0534 162.475 29.0858H168.999H175.474C177.583 29.0534 179.596 29.0209 181.511 28.9884V37.7519H178.59C178.46 36.3562 178.297 35.2527 178.103 34.4413C177.94 33.5974 177.648 32.9645 177.226 32.5425C176.804 32.1206 176.22 31.8609 175.474 31.7635C174.727 31.6337 173.753 31.5688 172.553 31.5688H166.369ZM255.578 31.5688V45.1521H261.859C262.378 45.1521 262.816 45.1035 263.173 45.0061C263.53 44.9087 263.806 44.6977 264.001 44.3732C264.228 44.0486 264.374 43.6104 264.439 43.0587C264.537 42.4744 264.585 41.6954 264.585 40.7217H267.555V53.1366H264.585C264.585 52.0331 264.553 51.1567 264.488 50.5076C264.423 49.826 264.293 49.3229 264.098 48.9983C263.904 48.6738 263.628 48.4628 263.271 48.3654C262.914 48.268 262.427 48.2194 261.81 48.2194H255.578V58.9789C255.578 59.9202 255.627 60.6667 255.725 61.2185C255.854 61.7702 256.098 62.1922 256.455 62.4843C256.812 62.744 257.315 62.9225 257.964 63.0199C258.646 63.0848 259.554 63.1172 260.69 63.1172H264.147C265.316 63.1172 266.273 63.0361 267.02 62.8738C267.798 62.7115 268.448 62.4032 268.967 61.9488C269.519 61.4619 269.973 60.8128 270.33 60.0013C270.72 59.1899 271.125 58.135 271.547 56.8367H274.712C274.257 58.2649 273.803 59.7417 273.349 61.2672C272.894 62.7927 272.505 64.2695 272.18 65.6976C270.038 65.6651 267.815 65.6327 265.51 65.6002H258.646H251.878C249.639 65.6327 247.497 65.6651 245.452 65.6976V63.4093C246.523 63.4093 247.367 63.3607 247.984 63.2633C248.6 63.1659 249.071 62.9549 249.395 62.6304C249.752 62.3058 249.98 61.8514 250.077 61.2672C250.174 60.6829 250.223 59.904 250.223 58.9302V35.415C250.223 34.4413 250.174 33.6785 250.077 33.1267C249.98 32.575 249.769 32.1692 249.444 31.9096C249.12 31.6175 248.633 31.439 247.984 31.374C247.367 31.3091 246.523 31.2767 245.452 31.2767V28.9884C247.464 29.0209 249.542 29.0534 251.684 29.0858H258.208H264.683C266.792 29.0534 268.805 29.0209 270.72 28.9884V37.7519H267.798C267.669 36.3562 267.506 35.2527 267.312 34.4413C267.149 33.5974 266.857 32.9645 266.435 32.5425C266.013 32.1206 265.429 31.8609 264.683 31.7635C263.936 31.6337 262.962 31.5688 261.762 31.5688H255.578ZM321.385 66.1844V35.7071C321.385 34.6685 321.418 33.857 321.483 33.2728C321.548 32.6561 321.742 32.2017 322.067 31.9096C322.392 31.6175 322.862 31.439 323.479 31.374C324.096 31.2767 324.972 31.228 326.108 31.228V28.8911C325.394 28.9235 324.436 28.956 323.235 28.9884H319.438H315.641C314.44 28.956 313.466 28.9235 312.719 28.8911V31.228C313.791 31.228 314.634 31.2767 315.251 31.374C315.9 31.4714 316.387 31.6662 316.712 31.9583C317.036 32.2504 317.247 32.6723 317.345 33.2241C317.442 33.7759 317.491 34.5062 317.491 35.415V57.567L293.83 28.8911C293.408 28.9235 292.807 28.956 292.028 28.9884C291.249 29.0209 290.422 29.0371 289.545 29.0371H286.916C286.072 29.0047 285.391 28.956 284.871 28.8911V31.228C286.072 31.228 287.062 31.2929 287.841 31.4227C288.653 31.5526 289.302 31.796 289.789 32.153C290.276 32.4776 290.616 32.932 290.811 33.5162C291.006 34.068 291.103 34.7983 291.103 35.7071V58.7842C291.103 59.8553 291.038 60.6992 290.908 61.3158C290.779 61.9325 290.519 62.4032 290.129 62.7277C289.74 63.0199 289.188 63.2146 288.474 63.312C287.793 63.3769 286.884 63.4093 285.748 63.4093V65.7463C286.657 65.7138 287.711 65.6813 288.912 65.6489H292.661H296.361C297.595 65.6489 298.666 65.6651 299.574 65.6976V63.4093C298.536 63.4093 297.708 63.3769 297.091 63.312C296.475 63.2471 296.004 63.0685 295.68 62.7764C295.355 62.4843 295.144 62.0461 295.047 61.4619C294.949 60.8452 294.901 60.0176 294.901 58.9789V37.2164L318.318 66.1844H321.385ZM342.11 59.125V35.2202C342.11 34.3439 342.061 33.6461 341.964 33.1267C341.899 32.6074 341.704 32.2179 341.38 31.9583C341.055 31.6662 340.568 31.4714 339.919 31.374C339.302 31.2767 338.458 31.228 337.387 31.228V28.9884C338.491 28.9884 339.676 29.0047 340.941 29.0371H344.836H348.731C349.997 29.0047 351.198 28.9884 352.334 28.9884C355.612 28.9884 358.517 29.5078 361.048 30.5464C363.612 31.585 365.771 32.9645 367.523 34.6847C369.276 36.3725 370.607 38.3199 371.516 40.527C372.424 42.7016 372.879 44.9574 372.879 47.2943C372.879 49.5988 372.441 51.8546 371.564 54.0617C370.721 56.2687 369.422 58.2324 367.67 59.9526C365.917 61.6729 363.71 63.0685 361.048 64.1396C358.419 65.1783 355.32 65.6976 351.749 65.6976C350.841 65.6651 349.77 65.6489 348.536 65.6489H344.739H340.844C339.578 65.6489 338.426 65.6651 337.387 65.6976V63.312C338.491 63.312 339.351 63.2795 339.968 63.2146C340.584 63.1172 341.055 62.9225 341.38 62.6304C341.704 62.3382 341.899 61.9163 341.964 61.3645C342.061 60.8128 342.11 60.0662 342.11 59.125ZM347.465 31.7635V59.1737C347.465 60.1149 347.514 60.8452 347.611 61.3645C347.709 61.8838 347.936 62.2733 348.293 62.533C348.65 62.7926 349.153 62.9549 349.802 63.0199C350.484 63.0848 351.409 63.1172 352.577 63.1172C355.109 63.1172 357.283 62.6953 359.101 61.8514C360.951 60.975 362.46 59.8228 363.629 58.3947C364.83 56.9341 365.706 55.2463 366.258 53.3314C366.842 51.3839 367.134 49.3391 367.134 47.1969C367.134 44.7302 366.761 42.5231 366.014 40.5757C365.3 38.6282 364.262 37.0054 362.898 35.7071C361.535 34.3763 359.864 33.3702 357.884 32.6886C355.904 31.9745 353.681 31.6175 351.214 31.6175C350.11 31.6175 349.267 31.6337 348.682 31.6662C348.131 31.6986 347.725 31.7311 347.465 31.7635ZM296.613 94.1496L297 96.9399C297.463 97.1442 297.903 97.2894 298.323 97.3754C298.753 97.4722 299.221 97.5206 299.726 97.5206C300.242 97.5206 300.747 97.4399 301.242 97.2787C301.747 97.1281 302.194 96.9023 302.581 96.6012C302.968 96.3002 303.28 95.9238 303.516 95.4722C303.764 95.0206 303.887 94.4991 303.887 93.9077C303.887 93.4346 303.807 93.0313 303.645 92.698C303.495 92.3647 303.291 92.0743 303.032 91.827C302.774 91.569 302.484 91.3485 302.161 91.1657C301.839 90.9722 301.511 90.7894 301.178 90.6173C300.844 90.456 300.516 90.284 300.194 90.1012C299.882 89.9077 299.597 89.6926 299.339 89.456C299.092 89.2195 298.893 88.9614 298.742 88.6818C298.592 88.3915 298.516 88.0689 298.516 87.7141C298.516 87.1227 298.683 86.6388 299.016 86.2625C299.36 85.8861 299.86 85.698 300.516 85.698C301.054 85.698 301.457 85.8485 301.726 86.1496C301.995 86.4399 302.183 86.9184 302.291 87.5851H303.291L302.952 85.0851C302.554 85.0205 302.194 84.9668 301.871 84.9238C301.559 84.87 301.199 84.8431 300.79 84.8431C300.253 84.8431 299.753 84.9184 299.29 85.0689C298.828 85.2087 298.425 85.4238 298.081 85.7141C297.737 86.0044 297.463 86.37 297.258 86.8109C297.065 87.241 296.968 87.7464 296.968 88.327C296.968 88.8216 297.054 89.2517 297.226 89.6173C297.409 89.9829 297.635 90.3001 297.903 90.569C298.183 90.8378 298.489 91.0743 298.823 91.2786C299.156 91.4722 299.479 91.655 299.79 91.827C300.102 91.9991 300.403 92.1711 300.694 92.3432C300.984 92.5152 301.237 92.7034 301.452 92.9077C301.678 93.112 301.855 93.3485 301.984 93.6174C302.113 93.8862 302.178 94.2034 302.178 94.569C302.178 94.8808 302.118 95.1657 302 95.4238C301.882 95.6819 301.721 95.9023 301.516 96.0851C301.312 96.2679 301.065 96.4131 300.774 96.5206C300.484 96.6174 300.172 96.6658 299.839 96.6658C299.484 96.6658 299.183 96.6012 298.936 96.4722C298.699 96.3324 298.495 96.1496 298.323 95.9238C298.151 95.698 298.011 95.4346 297.903 95.1335C297.796 94.8217 297.704 94.4937 297.629 94.1496H296.613ZM274.418 85.9562V90.4562H276.499C276.671 90.4562 276.816 90.44 276.935 90.4078C277.053 90.3755 277.144 90.3056 277.209 90.1981C277.284 90.0906 277.332 89.9454 277.354 89.7626C277.386 89.5691 277.402 89.311 277.402 88.9884H278.386V93.1013H277.402C277.402 92.7358 277.392 92.4454 277.37 92.2304C277.349 92.0046 277.306 91.8379 277.241 91.7304C277.176 91.6228 277.085 91.553 276.967 91.5207C276.849 91.4884 276.687 91.4723 276.483 91.4723H274.418V95.0368C274.418 95.3487 274.435 95.596 274.467 95.7788C274.51 95.9616 274.59 96.1014 274.709 96.1981C274.827 96.2842 274.994 96.3433 275.209 96.3756C275.435 96.3971 275.736 96.4078 276.112 96.4078H277.257C277.644 96.4078 277.961 96.3809 278.209 96.3272C278.467 96.2734 278.682 96.1713 278.854 96.0207C279.037 95.8594 279.187 95.6444 279.306 95.3755C279.435 95.1067 279.569 94.7573 279.709 94.3272H280.757C280.607 94.8003 280.456 95.2895 280.306 95.7949C280.155 96.3003 280.026 96.7895 279.918 97.2627C279.209 97.2519 278.472 97.2411 277.709 97.2304H275.435H273.193C272.451 97.2411 271.741 97.2519 271.064 97.2627V96.5046C271.418 96.5046 271.698 96.4885 271.902 96.4562C272.107 96.4239 272.262 96.354 272.37 96.2465C272.488 96.139 272.564 95.9885 272.596 95.7949C272.628 95.6014 272.644 95.3433 272.644 95.0207V87.2304C272.644 86.9078 272.628 86.6551 272.596 86.4723C272.564 86.2895 272.494 86.1551 272.386 86.0691C272.279 85.9723 272.117 85.9131 271.902 85.8916C271.698 85.8701 271.418 85.8594 271.064 85.8594V85.1013C271.73 85.1121 272.418 85.1228 273.128 85.1336H275.289H277.435C278.133 85.1228 278.8 85.1121 279.435 85.1013V88.0045H278.467C278.424 87.5422 278.37 87.1766 278.306 86.9078C278.252 86.6282 278.155 86.4185 278.015 86.2787C277.875 86.1389 277.682 86.0529 277.435 86.0207C277.187 85.9777 276.865 85.9562 276.467 85.9562H274.418ZM247.124 97.3593L251.269 88.2464L251.382 94.9561C251.382 95.3002 251.36 95.5744 251.317 95.7787C251.285 95.9722 251.205 96.1281 251.076 96.2464C250.957 96.3539 250.78 96.4238 250.543 96.4561C250.317 96.4883 250.016 96.5045 249.64 96.5045V97.2625C249.92 97.2625 250.301 97.2572 250.785 97.2464H252.317H253.834C254.328 97.2572 254.721 97.2625 255.011 97.2625V96.5045C254.592 96.5045 254.264 96.4883 254.027 96.4561C253.791 96.4131 253.608 96.3378 253.479 96.2303C253.35 96.1227 253.264 95.9722 253.221 95.7787C253.178 95.5744 253.151 95.3002 253.14 94.9561L252.963 87.1173C252.963 86.8808 252.979 86.6818 253.011 86.5206C253.054 86.3593 253.129 86.2302 253.237 86.1335C253.355 86.0259 253.506 85.9507 253.688 85.9076C253.882 85.8646 254.135 85.8431 254.446 85.8431V85.0205C254.285 85.0421 254.065 85.0636 253.785 85.0851L253.383 85.1003C253.23 85.1059 253.074 85.1116 252.914 85.1173H252.043C251.764 85.1066 251.543 85.0904 251.382 85.0689L246.963 94.8754L242.43 85.0528C242.28 85.0743 242.086 85.0904 241.85 85.1012H241.075H240.253C239.973 85.0904 239.726 85.0743 239.511 85.0528V85.8431C240.092 85.8431 240.484 85.9345 240.688 86.1173C240.903 86.3001 241.011 86.6388 241.011 87.1335L240.817 94.9561C240.796 95.3002 240.753 95.5744 240.688 95.7787C240.635 95.9722 240.532 96.1227 240.382 96.2303C240.242 96.3378 240.043 96.4077 239.785 96.44C239.538 96.4722 239.215 96.4937 238.817 96.5045V97.2787C239.118 97.2679 239.473 97.2572 239.882 97.2464H241.124H242.366C242.774 97.2464 243.124 97.2518 243.414 97.2625V96.5206C243.135 96.5098 242.909 96.4776 242.737 96.4238C242.565 96.3701 242.43 96.2894 242.334 96.1819C242.247 96.0636 242.188 95.9131 242.156 95.7303C242.124 95.5367 242.108 95.2948 242.108 95.0045L242.221 88.5206L246.301 97.3593H247.124ZM215.25 92.8273L214.492 95.0692C214.395 95.3273 214.331 95.5477 214.298 95.7305C214.266 95.9133 214.288 96.0639 214.363 96.1822C214.438 96.2897 214.567 96.3703 214.75 96.4241C214.943 96.4779 215.218 96.5047 215.572 96.5047V97.2628C215.271 97.2521 214.938 97.2467 214.572 97.2467H213.476H212.395C212.04 97.2467 211.712 97.2521 211.411 97.2628V96.4725C211.712 96.4725 211.954 96.451 212.137 96.408C212.331 96.3542 212.486 96.2682 212.605 96.1499C212.734 96.0316 212.841 95.8757 212.927 95.6822C213.024 95.4886 213.126 95.2359 213.234 94.9241L216.814 84.6337H217.718L221.202 94.9563C221.309 95.2789 221.411 95.537 221.508 95.7305C221.615 95.9241 221.739 96.0746 221.879 96.1822C222.019 96.2897 222.18 96.3703 222.363 96.4241C222.556 96.4671 222.793 96.5047 223.072 96.537V97.2628C222.771 97.2521 222.422 97.2467 222.024 97.2467H220.798H219.572C219.175 97.2467 218.825 97.2521 218.524 97.2628V96.5047C218.879 96.5047 219.148 96.4886 219.331 96.4564C219.524 96.4241 219.653 96.3596 219.718 96.2628C219.782 96.166 219.788 96.0209 219.734 95.8273C219.691 95.6338 219.615 95.3703 219.508 95.037L218.766 92.8273H215.25ZM215.556 91.9241H218.476L217.04 87.6337L215.556 91.9241ZM194.876 88.4562L194.538 85.7627C193.796 85.4938 193.081 85.2734 192.392 85.1014C191.715 84.9293 190.978 84.8433 190.183 84.8433C189.301 84.8433 188.473 85.01 187.699 85.3433C186.935 85.6659 186.263 86.1175 185.683 86.6981C185.113 87.268 184.661 87.9401 184.328 88.7143C184.005 89.4885 183.844 90.3272 183.844 91.2304C183.844 92.0906 184 92.9025 184.312 93.6659C184.634 94.4186 185.081 95.0853 185.65 95.6659C186.231 96.2358 186.925 96.6874 187.731 97.0208C188.538 97.3541 189.425 97.5208 190.392 97.5208C191.145 97.5208 191.871 97.4348 192.57 97.2627C193.28 97.0907 194.027 96.8326 194.812 96.4885V96.0046L194.554 95.7466V93.6659C194.554 93.4079 194.57 93.2089 194.602 93.0691C194.645 92.9186 194.715 92.8057 194.812 92.7304C194.909 92.6552 195.032 92.6068 195.183 92.5853C195.333 92.5638 195.521 92.553 195.747 92.553V91.7949C195.457 91.8057 195.118 91.8164 194.731 91.8272H193.538H192.328C191.93 91.8164 191.57 91.8057 191.247 91.7949V92.5691C191.559 92.5691 191.812 92.5799 192.005 92.6014C192.21 92.6229 192.366 92.6713 192.473 92.7466C192.591 92.8111 192.672 92.9186 192.715 93.0691C192.758 93.2089 192.78 93.4079 192.78 93.6659V96.053C192.757 96.0708 192.731 96.0913 192.699 96.1145C192.655 96.1476 192.601 96.1862 192.538 96.2304C192.43 96.295 192.285 96.3595 192.102 96.424C191.93 96.4885 191.715 96.5477 191.457 96.6014C191.199 96.6444 190.892 96.6659 190.538 96.6659C189.785 96.6659 189.113 96.5154 188.521 96.2143C187.93 95.9025 187.43 95.4885 187.021 94.9724C186.613 94.4562 186.301 93.8648 186.086 93.1982C185.871 92.5315 185.763 91.838 185.763 91.1175C185.763 90.4401 185.866 89.7788 186.07 89.1336C186.285 88.4777 186.591 87.8971 186.989 87.3917C187.387 86.8756 187.876 86.467 188.457 86.1659C189.038 85.8541 189.699 85.6981 190.441 85.6981C191.355 85.6981 192.102 85.9078 192.683 86.3272C193.263 86.7465 193.661 87.4562 193.876 88.4562H194.876Z" fill="white"/>
</svg>
