<svg width="28" height="28" viewBox="0 0 28 28" fill="none" xmlns="http://www.w3.org/2000/svg">
<path fill-rule="evenodd" clip-rule="evenodd" d="M24.5 19.8334C25.1444 19.8334 25.6667 20.3557 25.6667 21.0001C25.6667 21.6444 25.1444 22.1667 24.5 22.1667H3.50002C2.85569 22.1667 2.33335 21.6444 2.33335 21.0001C2.33335 20.3557 2.85569 19.8334 3.50002 19.8334H24.5ZM24.5 12.8334C25.1444 12.8334 25.6667 13.3557 25.6667 14.0001C25.6667 14.6444 25.1444 15.1667 24.5 15.1667H3.50002C2.85569 15.1667 2.33335 14.6444 2.33335 14.0001C2.33335 13.3557 2.85569 12.8334 3.50002 12.8334H24.5ZM24.5 5.8335C25.1443 5.8335 25.6666 6.35583 25.6666 7.00016C25.6666 7.6445 25.1443 8.16683 24.5 8.16683H3.49998C2.85565 8.16683 2.33331 7.6445 2.33331 7.00016C2.33331 6.35583 2.85565 5.8335 3.49998 5.8335H24.5Z" fill="white"/>
</svg>
