<svg width="24" height="24" viewBox="0 0 24 24" fill="none" xmlns="http://www.w3.org/2000/svg">
<g opacity="0.7">
<path fill-rule="evenodd" clip-rule="evenodd" d="M2.98218 6.5C2.98218 3.87479 3.01012 3 6.46144 3C9.91276 3 9.9407 3.87479 9.9407 6.5C9.9407 9.12521 9.95171 10 6.46144 10C2.97117 10 2.98218 9.12521 2.98218 6.5Z" stroke="white" stroke-width="1.5" stroke-linecap="round" stroke-linejoin="round"/>
<path fill-rule="evenodd" clip-rule="evenodd" d="M13.917 6.5C13.917 3.87479 13.9449 3 17.3963 3C20.8476 3 20.8755 3.87479 20.8755 6.5C20.8755 9.12521 20.8865 10 17.3963 10C13.906 10 13.917 9.12521 13.917 6.5Z" stroke="white" stroke-width="1.5" stroke-linecap="round" stroke-linejoin="round"/>
<path fill-rule="evenodd" clip-rule="evenodd" d="M2.98218 17.5C2.98218 14.8748 3.01012 14 6.46144 14C9.91276 14 9.9407 14.8748 9.9407 17.5C9.9407 20.1252 9.95171 21 6.46144 21C2.97117 21 2.98218 20.1252 2.98218 17.5Z" stroke="white" stroke-width="1.5" stroke-linecap="round" stroke-linejoin="round"/>
<path fill-rule="evenodd" clip-rule="evenodd" d="M13.917 17.5C13.917 14.8748 13.9449 14 17.3963 14C20.8476 14 20.8755 14.8748 20.8755 17.5C20.8755 20.1252 20.8865 21 17.3963 21C13.906 21 13.917 20.1252 13.917 17.5Z" stroke="white" stroke-width="1.5" stroke-linecap="round" stroke-linejoin="round"/>
</g>
</svg>
