<svg width="24" height="24" viewBox="0 0 24 24" fill="none" xmlns="http://www.w3.org/2000/svg">
<g opacity="0.7">
<path fill-rule="evenodd" clip-rule="evenodd" d="M9 12C9 9.74982 9.02409 9 12 9C14.9759 9 15 9.74982 15 12C15 14.2502 15.0095 15 12 15C8.99051 15 9 14.2502 9 12Z" stroke="white" stroke-width="1.4" stroke-linecap="round" stroke-linejoin="round"/>
<path fill-rule="evenodd" clip-rule="evenodd" d="M6 12C6 7.49964 6.04819 6 12 6C17.9518 6 18 7.49964 18 12C18 16.5004 18.019 18 12 18C5.98102 18 6 16.5004 6 12Z" stroke="white" stroke-width="1.4" stroke-linecap="round" stroke-linejoin="round"/>
<path fill-rule="evenodd" clip-rule="evenodd" d="M3 12C3 5.24945 3.07228 3 12 3C20.9277 3 21 5.24945 21 12C21 18.7505 21.0285 21 12 21C2.97153 21 3 18.7505 3 12Z" stroke="white" stroke-width="1.4" stroke-linecap="round" stroke-linejoin="round"/>
</g>
</svg>
