<svg width="28" height="28" viewBox="0 0 28 28" fill="none" xmlns="http://www.w3.org/2000/svg">
<path fill-rule="evenodd" clip-rule="evenodd" d="M15.8166 14.167L22.6989 7.28476C23.1551 6.82859 23.1551 6.09126 22.6989 5.63509C22.2427 5.17893 21.5054 5.17893 21.0492 5.63509L14.167 12.5174L7.2847 5.63509C6.82853 5.17893 6.0912 5.17893 5.63503 5.63509C5.17887 6.09126 5.17887 6.82859 5.63503 7.28476L12.5173 14.167L5.63503 21.0493C5.17887 21.5055 5.17887 22.2428 5.63503 22.699C5.86253 22.9265 6.1612 23.0408 6.45987 23.0408C6.75853 23.0408 7.0572 22.9265 7.2847 22.699L14.167 15.8167L21.0492 22.699C21.2767 22.9265 21.5754 23.0408 21.8741 23.0408C22.1727 23.0408 22.4714 22.9265 22.6989 22.699C23.1551 22.2428 23.1551 21.5055 22.6989 21.0493L15.8166 14.167Z" fill="white"/>
</svg>
