<svg width="228" height="145" viewBox="0 0 228 145" fill="none" xmlns="http://www.w3.org/2000/svg">
<rect x="0.218845" y="0.2186" width="227.145" height="128.526" rx="13.7872" stroke="white" stroke-width="0.437689"/>
<rect x="0.218845" y="0.2186" width="227.145" height="143.698" rx="13.7872" stroke="white" stroke-width="0.437689"/>
<rect x="206.342" y="128.963" width="0.758609" height="15.1722" fill="white"/>
<rect x="18.2078" y="128.963" width="0.758609" height="15.1722" fill="white"/>
<circle cx="194.203" cy="136.549" r="2.77561" stroke="white" stroke-width="0.517642"/>
<circle cx="185.099" cy="136.549" r="3.03443" fill="#0CFFD3"/>
<circle cx="175.998" cy="136.549" r="2.77561" stroke="white" stroke-width="0.517642"/>
<path fill-rule="evenodd" clip-rule="evenodd" d="M39.4458 12.1375H26.141C19.573 12.1375 14.061 16.6583 12.5469 22.758H13.081C14.583 16.9472 19.8608 12.6551 26.141 12.6551H39.4458V12.1375ZM188.133 12.6551V12.1375H199.919C206.487 12.1375 211.999 16.6583 213.513 22.7581H212.979C211.477 16.9472 206.199 12.6551 199.919 12.6551H188.133ZM188.133 113.273H199.919C205.639 113.273 210.527 109.713 212.489 104.688H213.043C211.056 110.005 205.929 113.791 199.919 113.791H188.133V113.273ZM13.5713 104.688C15.5329 109.713 20.4212 113.273 26.141 113.273H39.4458V113.791H26.141C20.1305 113.791 15.0043 110.005 13.0171 104.688H13.5713Z" fill="#0CFFD3"/>
<path d="M106.105 118.602H118.441C120.757 118.602 122.635 120.479 122.635 122.796V128.704H101.911V122.796C101.911 120.479 103.789 118.602 106.105 118.602Z" stroke="white" stroke-width="0.517642"/>
<path d="M72.4805 54.5598C73.5205 54.5598 74.4485 54.7758 75.2645 55.2078C76.0965 55.6398 76.7445 56.2798 77.2085 57.1278C77.6725 57.9758 77.9045 58.9998 77.9045 60.1998V67.9998H75.1925V60.6078C75.1925 59.4238 74.8965 58.5198 74.3045 57.8958C73.7125 57.2558 72.9045 56.9358 71.8805 56.9358C70.8565 56.9358 70.0405 57.2558 69.4325 57.8958C68.8405 58.5198 68.5445 59.4238 68.5445 60.6078V67.9998H65.8085V54.7758H68.5445V56.2878C68.9925 55.7438 69.5605 55.3198 70.2485 55.0158C70.9525 54.7118 71.6965 54.5598 72.4805 54.5598ZM87.1305 68.2158C85.8825 68.2158 84.7545 67.9358 83.7465 67.3758C82.7385 66.7998 81.9465 65.9998 81.3705 64.9758C80.7945 63.9358 80.5065 62.7358 80.5065 61.3758C80.5065 60.0318 80.8025 58.8398 81.3945 57.7998C81.9865 56.7598 82.7945 55.9598 83.8185 55.3998C84.8425 54.8398 85.9865 54.5598 87.2505 54.5598C88.5145 54.5598 89.6585 54.8398 90.6825 55.3998C91.7065 55.9598 92.5145 56.7598 93.1065 57.7998C93.6985 58.8398 93.9945 60.0318 93.9945 61.3758C93.9945 62.7198 93.6905 63.9118 93.0825 64.9518C92.4745 65.9918 91.6425 66.7998 90.5865 67.3758C89.5465 67.9358 88.3945 68.2158 87.1305 68.2158ZM87.1305 65.8398C87.8345 65.8398 88.4905 65.6718 89.0985 65.3358C89.7225 64.9998 90.2265 64.4958 90.6105 63.8238C90.9945 63.1518 91.1865 62.3358 91.1865 61.3758C91.1865 60.4158 91.0025 59.6078 90.6345 58.9518C90.2665 58.2798 89.7785 57.7758 89.1705 57.4398C88.5625 57.1038 87.9065 56.9358 87.2025 56.9358C86.4985 56.9358 85.8425 57.1038 85.2345 57.4398C84.6425 57.7758 84.1705 58.2798 83.8185 58.9518C83.4665 59.6078 83.2905 60.4158 83.2905 61.3758C83.2905 62.7998 83.6505 63.9038 84.3705 64.6878C85.1065 65.4558 86.0265 65.8398 87.1305 65.8398ZM102.022 61.3278C102.022 59.9998 102.294 58.8238 102.838 57.7998C103.398 56.7758 104.15 55.9838 105.094 55.4238C106.054 54.8478 107.118 54.5598 108.286 54.5598C109.15 54.5598 109.998 54.7518 110.83 55.1358C111.678 55.5038 112.35 55.9998 112.846 56.6238V50.2398H115.606V67.9998H112.846V66.0078C112.398 66.6478 111.774 67.1758 110.974 67.5918C110.19 68.0078 109.286 68.2158 108.262 68.2158C107.11 68.2158 106.054 67.9278 105.094 67.3518C104.15 66.7598 103.398 65.9438 102.838 64.9038C102.294 63.8478 102.022 62.6558 102.022 61.3278ZM112.846 61.3758C112.846 60.4638 112.654 59.6718 112.27 58.9998C111.902 58.3278 111.414 57.8158 110.806 57.4638C110.198 57.1118 109.542 56.9358 108.838 56.9358C108.134 56.9358 107.478 57.1118 106.87 57.4638C106.262 57.7998 105.766 58.3038 105.382 58.9758C105.014 59.6318 104.83 60.4158 104.83 61.3278C104.83 62.2398 105.014 63.0398 105.382 63.7278C105.766 64.4158 106.262 64.9438 106.87 65.3118C107.494 65.6638 108.15 65.8398 108.838 65.8398C109.542 65.8398 110.198 65.6638 110.806 65.3118C111.414 64.9598 111.902 64.4478 112.27 63.7758C112.654 63.0878 112.846 62.2878 112.846 61.3758ZM118.287 61.3278C118.287 59.9998 118.559 58.8238 119.103 57.7998C119.663 56.7758 120.415 55.9838 121.359 55.4238C122.319 54.8478 123.375 54.5598 124.527 54.5598C125.567 54.5598 126.471 54.7678 127.239 55.1838C128.023 55.5838 128.647 56.0878 129.111 56.6958V54.7758H131.871V67.9998H129.111V66.0318C128.647 66.6558 128.015 67.1758 127.215 67.5918C126.415 68.0078 125.503 68.2158 124.479 68.2158C123.343 68.2158 122.303 67.9278 121.359 67.3518C120.415 66.7598 119.663 65.9438 119.103 64.9038C118.559 63.8478 118.287 62.6558 118.287 61.3278ZM129.111 61.3758C129.111 60.4638 128.919 59.6718 128.535 58.9998C128.167 58.3278 127.679 57.8158 127.071 57.4638C126.463 57.1118 125.807 56.9358 125.103 56.9358C124.399 56.9358 123.743 57.1118 123.135 57.4638C122.527 57.7998 122.031 58.3038 121.647 58.9758C121.279 59.6318 121.095 60.4158 121.095 61.3278C121.095 62.2398 121.279 63.0398 121.647 63.7278C122.031 64.4158 122.527 64.9438 123.135 65.3118C123.759 65.6638 124.415 65.8398 125.103 65.8398C125.807 65.8398 126.463 65.6638 127.071 65.3118C127.679 64.9598 128.167 64.4478 128.535 63.7758C128.919 63.0878 129.111 62.2878 129.111 61.3758ZM138.657 57.0078V64.3278C138.657 64.8238 138.769 65.1838 138.993 65.4078C139.233 65.6158 139.633 65.7198 140.193 65.7198H141.873V67.9998H139.713C138.481 67.9998 137.537 67.7118 136.881 67.1358C136.225 66.5598 135.897 65.6238 135.897 64.3278V57.0078H134.337V54.7758H135.897V51.4878H138.657V54.7758H141.873V57.0078H138.657ZM143.482 61.3278C143.482 59.9998 143.754 58.8238 144.298 57.7998C144.858 56.7758 145.61 55.9838 146.554 55.4238C147.514 54.8478 148.57 54.5598 149.722 54.5598C150.762 54.5598 151.666 54.7678 152.434 55.1838C153.218 55.5838 153.842 56.0878 154.306 56.6958V54.7758H157.066V67.9998H154.306V66.0318C153.842 66.6558 153.21 67.1758 152.41 67.5918C151.61 68.0078 150.698 68.2158 149.674 68.2158C148.538 68.2158 147.498 67.9278 146.554 67.3518C145.61 66.7598 144.858 65.9438 144.298 64.9038C143.754 63.8478 143.482 62.6558 143.482 61.3278ZM154.306 61.3758C154.306 60.4638 154.114 59.6718 153.73 58.9998C153.362 58.3278 152.874 57.8158 152.266 57.4638C151.658 57.1118 151.002 56.9358 150.298 56.9358C149.594 56.9358 148.938 57.1118 148.33 57.4638C147.722 57.7998 147.226 58.3038 146.842 58.9758C146.474 59.6318 146.29 60.4158 146.29 61.3278C146.29 62.2398 146.474 63.0398 146.842 63.7278C147.226 64.4158 147.722 64.9438 148.33 65.3118C148.954 65.6638 149.61 65.8398 150.298 65.8398C151.002 65.8398 151.658 65.6638 152.266 65.3118C152.874 64.9598 153.362 64.4478 153.73 63.7758C154.114 63.0878 154.306 62.2878 154.306 61.3758Z" fill="white"/>
</svg>
