<svg width="157" height="24" viewBox="0 0 157 24" fill="none" xmlns="http://www.w3.org/2000/svg">
<path d="M34.5586 8.87569C34.3753 8.50055 34.0932 8.1687 33.7407 7.89456C33.4023 7.63485 32.9933 7.43285 32.5279 7.303C32.0767 7.15871 31.569 7.101 31.019 7.101H27V17.2009H28.6217V13.1609H31.019C31.569 13.1609 32.0767 13.0888 32.5279 12.9589C32.9933 12.8147 33.4023 12.6127 33.7407 12.3529C34.0932 12.0788 34.3753 11.7469 34.5586 11.3718C34.756 10.9967 34.8406 10.5782 34.8406 10.131C34.8406 9.68368 34.756 9.26526 34.5586 8.87569ZM33.0779 10.737C32.9933 10.9101 32.8664 11.0544 32.6972 11.1842C32.5279 11.3285 32.3023 11.444 32.0203 11.5161C31.7382 11.6027 31.3998 11.6459 31.019 11.6459H28.6217V8.61598H31.019C31.3998 8.61598 31.7382 8.65927 32.0203 8.73141C32.3023 8.81798 32.5279 8.93341 32.7113 9.06326C32.8805 9.19312 32.9933 9.3374 33.0779 9.51054C33.1766 9.69811 33.2189 9.90011 33.2189 10.131C33.2189 10.3474 33.1766 10.5494 33.0779 10.737Z" fill="white"/>
<path d="M39.105 9.72697C36.9192 9.72697 35.1424 11.4151 35.1424 13.4928C35.1424 15.5705 36.9192 17.2586 39.105 17.2586C41.3049 17.2586 43.0818 15.5705 43.0818 13.4928C43.0818 11.4151 41.3049 9.72697 39.105 9.72697ZM39.105 15.7436C37.8218 15.7436 36.7641 14.7336 36.7641 13.4928C36.7641 12.2519 37.8218 11.242 39.105 11.242C40.4024 11.242 41.46 12.2519 41.46 13.4928C41.46 14.7336 40.4024 15.7436 39.105 15.7436Z" fill="white"/>
<path d="M45.8474 17.0999V7H44.2257V17.0999H45.8474Z" fill="white"/>
<path d="M54.7418 9.90011H52.9791L52.415 11.141L50.6664 15.2242L48.4524 9.90011H46.6896L49.8343 16.8835L48.4383 20H50.201L54.6713 10.0444L54.7418 9.90011Z" fill="white"/>
<path d="M62.3559 17.0999L62.3418 13.1754C62.3559 12.4539 62.2431 11.6027 61.7214 10.8524C61.4675 10.4917 61.0868 10.1598 60.6355 9.9434C60.1983 9.72697 59.6766 9.65483 59.2253 9.66926C58.9997 9.68368 58.76 9.71254 58.5343 9.77026C58.2946 9.8424 58.069 9.92897 57.8715 10.0444C57.6177 10.2031 57.3921 10.3907 57.2087 10.6071V7H55.587V17.0999H57.2087V13.4351C57.2229 13.3485 57.2229 13.2619 57.237 13.1754C57.2652 12.8579 57.3357 12.5694 57.4485 12.2952C57.5754 12.0355 57.7305 11.7902 57.9279 11.6027C58.1113 11.4295 58.3228 11.3141 58.5484 11.242C58.76 11.1842 58.9856 11.1554 59.2253 11.1842C59.7048 11.2275 60.0432 11.4007 60.3112 11.7469C60.4381 11.9201 60.5509 12.1365 60.6214 12.3818C60.6919 12.6271 60.7201 12.8724 60.7201 13.1754V17.0999H62.3559Z" fill="white"/>
<path d="M70.9743 14.1132H71.2563C71.2986 13.9112 71.3127 13.7092 71.3127 13.4928C71.3127 11.4151 69.5359 9.72697 67.336 9.72697C65.1502 9.72697 63.3734 11.4151 63.3734 13.4928C63.3734 15.5705 65.2771 17.2586 67.6039 17.2586C69.0564 17.2586 70.3679 16.6093 71.1435 15.5705L69.6346 14.9212C69.1551 15.4262 68.4077 15.7436 67.6039 15.7436C66.4194 15.7436 65.4181 15.0511 65.0938 14.1132H70.9743ZM65.0938 12.8724C65.3758 11.9345 66.2783 11.242 67.336 11.242C68.4077 11.242 69.3103 11.9345 69.5923 12.8724H65.0938Z" fill="white"/>
<path d="M78.732 7V10.8812C78.4217 10.5638 78.041 10.2752 77.6179 10.0733C77.1525 9.85683 76.6308 9.7414 76.0949 9.72697C75.5731 9.72697 75.0373 9.81354 74.5437 10.0011C74.0501 10.2031 73.613 10.4917 73.2463 10.838C72.5271 11.5449 72.1182 12.5261 72.1323 13.4928C72.1182 14.4595 72.5271 15.4406 73.2463 16.1476C73.613 16.5083 74.0501 16.7969 74.5437 16.9845C75.0373 17.1865 75.5731 17.273 76.0949 17.2586C76.6308 17.2442 77.1525 17.1287 77.6179 16.9123C78.041 16.7103 78.4217 16.4362 78.732 16.1043V17.0999H80.3537V7H78.732ZM77.8717 15.1953C77.6179 15.3973 77.3218 15.5416 77.0256 15.6282C76.7154 15.7148 76.4051 15.758 76.0949 15.7436C75.4744 15.7148 74.8821 15.4839 74.445 15.0655C74.0078 14.6615 73.754 14.0844 73.754 13.4928C73.754 12.9012 74.0078 12.3241 74.445 11.9201C74.8821 11.5017 75.4744 11.2708 76.0949 11.242C76.4051 11.2275 76.7154 11.2708 77.0256 11.3574C77.3218 11.444 77.6179 11.6027 77.8717 11.8047C78.3935 12.1942 78.732 12.8291 78.732 13.4928C78.732 14.1565 78.3935 14.7913 77.8717 15.1953Z" fill="white"/>
<path d="M86.2488 9.71254C86.0091 9.68368 85.7693 9.66926 85.5437 9.66926C85.0784 9.69811 84.5989 9.82797 84.204 10.0733C83.8938 10.2464 83.6541 10.4917 83.4707 10.7514V9.88568H81.849V17.0999H83.4707V13.4495C83.4707 13.3629 83.4848 13.2619 83.4989 13.1754C83.513 12.8579 83.5836 12.5549 83.6964 12.2808C83.8233 12.0067 83.9925 11.7469 84.1899 11.5738C84.4015 11.3862 84.6271 11.2852 84.8527 11.2275C85.0784 11.1698 85.2899 11.1554 85.5437 11.1842C85.7834 11.1987 85.9809 11.2564 86.1501 11.3574C86.2065 11.3862 86.2488 11.4151 86.3052 11.444L86.6719 9.82797C86.5308 9.78468 86.3898 9.7414 86.2488 9.71254Z" fill="white"/>
<path d="M93.4535 9.88568V10.8812C93.1433 10.5638 92.7626 10.2752 92.3395 10.0733C91.8741 9.85683 91.3524 9.7414 90.8165 9.72697C90.2947 9.72697 89.7589 9.81354 89.2653 10.0011C88.7717 10.2031 88.3346 10.4917 87.9679 10.838C87.2487 11.5449 86.8398 12.5261 86.8539 13.4928C86.8398 14.4595 87.2487 15.4406 87.9679 16.1476C88.3346 16.5083 88.7717 16.7969 89.2653 16.9845C89.7589 17.172 90.2947 17.273 90.8165 17.2586C91.3524 17.2442 91.8741 17.1287 92.3395 16.9123C92.7626 16.7103 93.1433 16.4362 93.4535 16.1043V17.0999H95.0753V9.88568H93.4535ZM92.5933 15.1953C92.3395 15.3973 92.0434 15.5416 91.7472 15.6282C91.437 15.7148 91.1267 15.758 90.8165 15.7436C90.196 15.7148 89.6037 15.4839 89.1666 15.0655C88.7294 14.6615 88.4756 14.0844 88.4756 13.4928C88.4756 12.9012 88.7294 12.3241 89.1666 11.9201C89.6037 11.5017 90.196 11.2708 90.8165 11.242C91.1267 11.2275 91.437 11.2708 91.7472 11.3574C92.0434 11.444 92.3395 11.6027 92.5933 11.8047C93.1151 12.1942 93.4535 12.8291 93.4535 13.4928C93.4535 14.1565 93.1151 14.7913 92.5933 15.1953Z" fill="white"/>
<path d="M106.572 7.101V11.9201C106.572 13.8679 106.77 14.9068 106.77 14.9068C106.77 14.9068 106.375 13.9834 105.388 12.5694L101.566 7.101H100.043V17.1865H101.665V12.3674C101.665 10.4195 101.481 9.38069 101.481 9.38069C101.481 9.38069 101.876 10.3041 102.849 11.7181L106.671 17.1865H108.208V7.101H106.572Z" fill="white"/>
<path d="M117.026 14.1132H117.308C117.35 13.9112 117.364 13.7092 117.364 13.4928C117.364 11.4151 115.587 9.72697 113.387 9.72697C111.202 9.72697 109.425 11.4151 109.425 13.4928C109.425 15.5705 111.329 17.2586 113.655 17.2586C115.108 17.2586 116.419 16.6093 117.195 15.5705L115.686 14.9212C115.207 15.4262 114.459 15.7436 113.655 15.7436C112.471 15.7436 111.47 15.0511 111.145 14.1132H117.026ZM111.145 12.8724C111.427 11.9345 112.33 11.242 113.387 11.242C114.459 11.242 115.362 11.9345 115.644 12.8724H111.145Z" fill="white"/>
<path d="M123.066 11.4584V9.9434H121.063V7.44728L119.428 8.31299V9.9434H117.848V11.4584H119.428V14.4018C119.428 15.3108 119.555 16.2342 120.415 16.8113C120.88 17.1287 121.487 17.2297 122.135 17.2297C122.445 17.2297 122.756 17.2009 123.066 17.172V15.6426C122.46 15.7148 121.656 15.7725 121.36 15.5705C121.204 15.4839 121.063 15.3108 121.063 14.4018V11.4584H123.066Z" fill="white"/>
<path d="M133.262 9.90011L131.006 14.9212L130.188 13.1032L131.641 9.90011H129.878L129.314 11.5017L128.75 9.90011H126.987L128.426 13.1032L127.622 14.9212L125.365 9.90011H123.603L126.832 17.0999H128.397L129.314 14.7192L130.231 17.0999H131.782L135.025 9.90011H133.262Z" fill="white"/>
<path d="M139.113 9.72697C136.927 9.72697 135.15 11.4151 135.15 13.4928C135.15 15.5705 136.927 17.2586 139.113 17.2586C141.313 17.2586 143.089 15.5705 143.089 13.4928C143.089 11.4151 141.313 9.72697 139.113 9.72697ZM139.113 15.7436C137.829 15.7436 136.772 14.7336 136.772 13.4928C136.772 12.2519 137.829 11.242 139.113 11.242C140.41 11.242 141.468 12.2519 141.468 13.4928C141.468 14.7336 140.41 15.7436 139.113 15.7436Z" fill="white"/>
<path d="M148.633 9.71254C148.393 9.68368 148.154 9.66926 147.928 9.66926C147.463 9.69811 146.983 9.82797 146.588 10.0733C146.278 10.2464 146.038 10.4917 145.855 10.7514V9.88568H144.233V17.0999H145.855V13.4495C145.855 13.3629 145.869 13.2619 145.883 13.1754C145.897 12.8579 145.968 12.5549 146.081 12.2808C146.208 12.0067 146.377 11.7469 146.574 11.5738C146.786 11.3862 147.011 11.2852 147.237 11.2275C147.463 11.1698 147.674 11.1554 147.928 11.1842C148.168 11.1987 148.365 11.2564 148.534 11.3574C148.591 11.3862 148.633 11.4151 148.689 11.444L149.056 9.82797C148.915 9.78468 148.774 9.7414 148.633 9.71254Z" fill="white"/>
<path d="M153.221 13.0888L156.267 9.88568H154.151L151.543 12.7858V7H149.921V17.0999H151.543V13.3918L154.885 17.0999H157L153.221 13.0888Z" fill="white"/>
<path fill-rule="evenodd" clip-rule="evenodd" d="M21 6L10.5 0L0 6V18L10.5 24L21 18V6ZM1.68812 18.0763L9.59373 22.5938L6.95852 18.0763H1.68812ZM20.2227 16.5511V7.47025L17.5741 12.0107L20.2227 16.5511ZM9.61245 1.39552L1.65187 5.94442L6.95892 5.94442L9.61245 1.39552ZM0.777938 6.71376L6.87602 6.71376V17.307H0.777938L0.777938 6.71376ZM16.9375 12.458L7.66845 17.7546L10.7175 22.9816L19.9865 17.685L16.9375 12.458ZM7.67359 6.25794L16.9426 11.5545L19.9917 6.32762L10.7226 1.03102L7.67359 6.25794ZM7.65332 16.8749V7.13471L16.176 12.0048L7.65332 16.8749Z" fill="url(#paint0_linear_671_8113)"/>
<defs>
<linearGradient id="paint0_linear_671_8113" x1="-3.42864e-05" y1="18.2396" x2="11.0314" y2="0.243983" gradientUnits="userSpaceOnUse">
<stop stop-color="#0CFFF0"/>
<stop offset="1" stop-color="#0CFFA7"/>
</linearGradient>
</defs>
</svg>
