<svg width="37" height="37" viewBox="0 0 37 37" fill="none" xmlns="http://www.w3.org/2000/svg">
<path d="M32.3699 9.11885C31.3922 9.54018 30.3644 9.83357 29.3119 9.99177C29.804 9.90729 30.5281 9.02029 30.8163 8.66126C31.2542 8.11971 31.5879 7.50148 31.8005 6.83798C31.8005 6.7887 31.8497 6.7183 31.8005 6.6831C31.7757 6.66955 31.7479 6.66245 31.7196 6.66245C31.6914 6.66245 31.6636 6.66955 31.6388 6.6831C30.4959 7.3029 29.2794 7.77594 28.0184 8.09105C27.9744 8.10449 27.9276 8.1057 27.883 8.09454C27.8384 8.08338 27.7977 8.06027 27.7653 8.02769C27.6671 7.91064 27.5614 7.80012 27.4489 7.69682C26.9346 7.23533 26.351 6.85762 25.7196 6.57751C24.8672 6.22734 23.9465 6.07569 23.0271 6.13401C22.1349 6.19043 21.2639 6.43005 20.4682 6.83798C19.6846 7.26805 18.9959 7.85232 18.4435 8.55567C17.8625 9.2796 17.443 10.1197 17.2133 11.0196C17.0239 11.8755 17.0024 12.7601 17.15 13.6243C17.15 13.7721 17.15 13.7932 17.0235 13.7721C12.0111 13.0329 7.89859 11.2519 4.53827 7.42931C4.39064 7.26036 4.31331 7.26036 4.1938 7.42931C2.73157 9.65386 3.44159 13.1737 5.26938 14.9125C5.51543 15.1448 5.76851 15.3701 6.03565 15.5813C5.19762 15.5217 4.38006 15.2943 3.6314 14.9125C3.4908 14.821 3.41347 14.8703 3.40644 15.0392C3.38651 15.2735 3.38651 15.509 3.40644 15.7432C3.55313 16.8658 3.99491 17.9292 4.6866 18.8247C5.37829 19.7202 6.29509 20.4156 7.34322 20.84C7.59873 20.9496 7.86497 21.0321 8.13761 21.0864C7.3618 21.2393 6.56611 21.2631 5.78257 21.1568C5.61385 21.1216 5.55058 21.2131 5.61385 21.375C6.64726 24.1909 8.88982 25.0497 10.5348 25.5284C10.7598 25.5636 10.9847 25.5636 11.2378 25.6199C11.2378 25.6199 11.2378 25.6199 11.1956 25.6622C10.7106 26.5492 8.74922 27.1476 7.84938 27.4573C6.20695 28.0481 4.45581 28.2739 2.71751 28.119C2.44334 28.0768 2.38007 28.0838 2.30977 28.119C2.23947 28.1542 2.30977 28.2317 2.3871 28.3021C2.7386 28.5344 3.09009 28.7385 3.45565 28.9357C4.54392 29.5301 5.69444 30.0022 6.88628 30.3436C13.0586 32.0472 20.0042 30.7941 24.6369 26.1831C28.2785 22.5647 29.5579 17.5735 29.5579 12.5753C29.5579 12.3853 29.7899 12.2726 29.9235 12.1741C30.8448 11.4553 31.657 10.6063 32.3348 9.65386C32.4521 9.51189 32.5123 9.33111 32.5035 9.14701C32.5035 9.04141 32.5035 9.06253 32.3699 9.11885Z" fill="white"/>
</svg>
