<svg width="24" height="24" viewBox="0 0 24 24" fill="none" xmlns="http://www.w3.org/2000/svg">
<circle cx="12" cy="12" r="12" fill="black"/>
<rect x="2.75" y="3.75" width="18.5" height="16.5" rx="5.25" fill="black" stroke="url(#paint0_linear_18_1702)" stroke-width="1.5"/>
<rect x="6" y="7" width="6" height="2" rx="1" fill="url(#paint1_linear_18_1702)"/>
<path d="M13.75 12C13.75 10.2051 15.2051 8.75 17 8.75H20.2C20.7799 8.75 21.25 9.2201 21.25 9.8V14.2C21.25 14.7799 20.7799 15.25 20.2 15.25H17C15.2051 15.25 13.75 13.7949 13.75 12Z" fill="black" stroke="url(#paint2_linear_18_1702)" stroke-width="1.5"/>
<rect x="17" y="11" width="2" height="2" rx="1" fill="url(#paint3_linear_18_1702)"/>
<defs>
<linearGradient id="paint0_linear_18_1702" x1="2" y1="12" x2="22.0154" y2="11.9203" gradientUnits="userSpaceOnUse">
<stop stop-color="#0CFFF0"/>
<stop offset="1" stop-color="#0CFFA7"/>
</linearGradient>
<linearGradient id="paint1_linear_18_1702" x1="6" y1="8" x2="12.004" y2="7.93545" gradientUnits="userSpaceOnUse">
<stop stop-color="#0CFFF0"/>
<stop offset="1" stop-color="#0CFFA7"/>
</linearGradient>
<linearGradient id="paint2_linear_18_1702" x1="13" y1="12" x2="22.0069" y2="11.9637" gradientUnits="userSpaceOnUse">
<stop stop-color="#0CFFF0"/>
<stop offset="1" stop-color="#0CFFA7"/>
</linearGradient>
<linearGradient id="paint3_linear_18_1702" x1="17" y1="12" x2="19.0015" y2="11.9928" gradientUnits="userSpaceOnUse">
<stop stop-color="#0CFFF0"/>
<stop offset="1" stop-color="#0CFFA7"/>
</linearGradient>
</defs>
</svg>
