<svg width="24" height="24" viewBox="0 0 24 24" fill="none" xmlns="http://www.w3.org/2000/svg">
<circle cx="12" cy="12" r="12" fill="black"/>
<path fill-rule="evenodd" clip-rule="evenodd" d="M12.0085 2.90295L12.1644 2.99296L19.6512 7.31545L19.8071 7.40546V7.58546V16.2305V16.4105L19.6512 16.5005L12.1644 20.823L12.0085 20.913L11.8526 20.823L4.36585 16.5005L4.20996 16.4105V16.2305V7.58546V7.40546L4.36585 7.31545L11.8526 2.99296L12.0085 2.90295ZM12.0085 3.62297L4.83351 7.76546V11.3835L11.8527 7.33095L12.0085 7.24095L12.1644 7.33095L15.4207 9.21097L15.4208 9.17662C15.4219 8.82706 15.4232 8.35386 15.4241 7.85922C15.4256 6.97556 15.4258 6.02893 15.4209 5.59313L12.0085 3.62297ZM15.1089 9.75094L12.0085 7.96097L4.83351 12.1035V16.0505L7.95334 17.8517V14.0438V13.8634L8.10976 13.7735L15.1089 9.75094ZM15.7571 9.75327L16.0424 9.75432L16.0424 9.75419L16.0424 9.7537L16.0424 9.75173L16.0425 9.74395L16.0426 9.71355L16.043 9.59759L16.0444 9.17855C16.0455 8.82882 16.0468 8.35532 16.0476 7.86031C16.0488 7.17878 16.0492 6.45321 16.047 5.9546L19.1835 7.76546V11.6753L12.0072 15.8224L8.89224 14.043L15.886 10.0235L16.0417 9.93398L16.0424 9.75436L15.7571 9.75327ZM12.0085 20.1929L8.57689 18.2117V14.581L11.8535 16.4527L12.009 16.5415L12.1641 16.4519L19.1835 12.3955V16.0505L12.0085 20.1929Z" fill="url(#paint0_linear_1003_15394)"/>
<defs>
<linearGradient id="paint0_linear_1003_15394" x1="4.20994" y1="16.5902" x2="12.5266" y2="3.16245" gradientUnits="userSpaceOnUse">
<stop stop-color="#0CFFF0"/>
<stop offset="1" stop-color="#0CFFA7"/>
</linearGradient>
</defs>
</svg>
