<svg width="171" height="40" viewBox="0 0 171 40" fill="none" xmlns="http://www.w3.org/2000/svg">
<path fill-rule="evenodd" clip-rule="evenodd" d="M20.2325 0.615386C18.8114 -0.205127 17.0604 -0.205129 15.6392 0.615385L2.29665 8.31874C0.875478 9.13925 0 10.6556 0 12.2966V27.7034C0 29.3444 0.875475 30.8608 2.29665 31.6813L15.6392 39.3846C17.0604 40.2051 18.8114 40.2051 20.2325 39.3846L33.5751 31.6813C34.9963 30.8608 35.8718 29.3444 35.8718 27.7034V12.2966C35.8718 10.6556 34.9963 9.13925 33.5751 8.31874L20.2325 0.615386ZM3.60427 29.4164C3.25636 29.2155 2.98437 28.9178 2.81441 28.5684L17.1469 3.74372V37.2206C17.0789 37.191 17.0121 37.1574 16.9469 37.1198L3.60427 29.4164ZM18.7248 37.2206V3.74372L33.0574 28.5684C32.8874 28.9178 32.6154 29.2155 32.2675 29.4164L18.9249 37.1198C18.8597 37.1574 18.7929 37.191 18.7248 37.2206ZM3.60427 10.5836L15.2618 3.85313L2.61524 25.7576V12.2966C2.61524 11.59 2.99225 10.9369 3.60427 10.5836ZM33.2565 25.7576L20.61 3.85313L32.2675 10.5836C32.8795 10.9369 33.2565 11.59 33.2565 12.2966V25.7576ZM78.5379 29.7937V9.97981H81.3156V29.7937H78.5379ZM130.161 23.0196C130.161 18.8774 132.963 16.1484 136.521 16.1484C138.275 16.1484 140.127 16.9768 141.15 18.2439V9.98727H143.952V29.7933H141.15V27.7709C140.297 28.9892 138.689 30.0126 136.496 30.0126C132.963 30.0126 130.161 27.1618 130.161 23.0196ZM141.15 23.0683C141.15 20.1931 139.177 18.5606 137.081 18.5606C135.01 18.5606 133.012 20.12 133.012 23.0196C133.012 25.9191 135.01 27.6004 137.081 27.6004C139.177 27.6004 141.15 25.9678 141.15 23.0683ZM150.378 29.7938V22.7277C150.378 19.8769 151.659 18.988 153.705 18.988C153.889 18.988 154.46 18.988 155.015 19.219L155.71 16.4315C155.278 16.1794 154.709 16.1489 154.399 16.1489C152.498 16.1489 151.158 16.9773 150.378 18.3174V16.3682H147.601V29.7938H150.378ZM162.632 16.1489C159.099 16.1489 156.297 18.8779 156.297 23.0201C156.297 27.1623 159.099 30.0131 162.583 30.0131C164.825 30.0131 166.433 28.941 167.286 27.7958V29.7938H170.088V16.3682H167.286V18.3174C166.457 17.221 164.898 16.1489 162.632 16.1489ZM163.216 18.5611C165.312 18.5611 167.286 20.1936 167.286 23.0688C167.286 25.9683 165.312 27.6009 163.216 27.6009C161.145 27.6009 159.147 25.9196 159.147 23.0201C159.147 20.1205 161.145 18.5611 163.216 18.5611ZM117.752 21.8749C118.045 19.755 119.555 18.488 121.431 18.488C123.503 18.488 125.135 19.8038 125.184 21.8749H117.752ZM121.553 30.0131C124.843 30.0131 126.963 28.1369 127.718 25.7978H124.721C124.209 26.8455 123.259 27.674 121.553 27.674C119.507 27.674 117.923 26.3338 117.728 24.1165H127.986C128.059 23.6536 128.083 23.215 128.083 22.752C128.083 18.8048 125.379 16.1489 121.553 16.1489C117.582 16.1489 114.853 18.8535 114.853 23.0688C114.853 27.2841 117.704 30.0131 121.553 30.0131ZM99.6848 29.7938V9.98991H102.463V17.9276C103.388 16.8067 104.899 16.1489 106.629 16.1489C109.626 16.1489 111.965 18.1225 111.965 21.8748V29.7938H109.212V22.2891C109.212 19.8281 107.872 18.5611 105.849 18.5611C103.803 18.5611 102.463 19.8281 102.463 22.2891V29.7938H99.6848ZM94.4584 16.3682L90.5355 26.6018L86.7588 16.3682H83.6643L88.9517 29.5745L86.2227 36.1045H89.0979L97.3336 16.3682H94.4584ZM68.9075 30.0131C72.8054 30.0131 75.9633 27.2841 75.9633 23.0688C75.9633 18.8535 72.9041 16.1489 69.0308 16.1489C65.1576 16.1489 62.0984 18.8535 62.0984 23.0688C62.0984 27.2841 65.0342 30.0131 68.9075 30.0131ZM68.9075 27.6009C66.7858 27.6009 64.8961 26.136 64.8961 23.0903C64.8961 20.0445 66.8598 18.5611 68.9815 18.5611C71.0785 18.5611 73.1746 20.0231 73.1746 23.0688C73.1746 26.1145 71.0045 27.6009 68.9075 27.6009ZM50.1352 19.1071H54.5359C57.0716 19.1071 58.5022 17.882 58.5022 15.8877C58.5022 13.8363 57.0716 12.6397 54.5359 12.6397H50.1352V19.1071ZM61.2745 15.8877C61.2745 18.7083 59.6928 21.7568 54.5359 21.7568H50.1352V29.7913L47.3576 29.7913V9.99003L54.5359 9.99C59.237 9.99 61.2745 12.6682 61.2745 15.8877Z" fill="#141413"/>
</svg>
