<svg width="349" height="782" viewBox="0 0 349 782" fill="none" xmlns="http://www.w3.org/2000/svg">
<g clip-path="url(#clip0_16185_11022)">
<path d="M21.9611 779.792L327.029 779.792C338.627 779.792 348.029 770.39 348.029 758.792L348.029 23.8027C348.029 12.2047 338.627 2.80269 327.029 2.8027L21.9604 2.80262C10.3623 2.8026 0.960312 12.2046 0.960346 23.8026L0.961206 758.792C0.961218 770.39 10.3632 779.792 21.9611 779.792Z" stroke="url(#paint0_linear_16185_11022)" stroke-width="2"/>
<mask id="mask0_16185_11022" style="mask-type:alpha" maskUnits="userSpaceOnUse" x="1" y="3" width="347" height="776">
<path d="M1.9614 23.8025C1.96141 12.7568 10.9157 3.80249 21.9614 3.80249L327.029 3.80257C338.075 3.80258 347.029 12.7569 347.029 23.8026L347.029 758.792C347.029 769.838 338.075 778.792 327.029 778.792L21.9613 778.792C10.9156 778.792 1.96135 769.837 1.96131 758.792L1.9614 23.8025Z" fill="black"/>
</mask>
<g mask="url(#mask0_16185_11022)">
<rect x="1.60791" y="589.287" width="195.208" height="189.504" fill="url(#paint1_linear_16185_11022)" fill-opacity="0.4"/>
<rect x="1.60791" y="589.287" width="195.208" height="189.504" fill="black" fill-opacity="0.4"/>
<rect x="80.155" y="515.605" width="26.1656" height="25.401" transform="rotate(90 80.155 515.605)" fill="url(#paint2_linear_16185_11022)" fill-opacity="0.4"/>
<rect x="80.155" y="515.605" width="26.1656" height="25.401" transform="rotate(90 80.155 515.605)" fill="black" fill-opacity="0.2"/>
<rect x="291.973" y="745.229" width="38.2397" height="37.1224" transform="rotate(-180 291.973 745.229)" fill="url(#paint3_linear_16185_11022)" fill-opacity="0.4"/>
<rect x="291.973" y="745.229" width="38.2397" height="37.1224" transform="rotate(-180 291.973 745.229)" fill="black" fill-opacity="0.2"/>
<rect x="69.6797" y="525.777" width="40.7541" height="39.5633" transform="rotate(90 69.6797 525.777)" fill="url(#paint4_linear_16185_11022)" fill-opacity="0.4"/>
<rect x="69.6797" y="525.777" width="40.7541" height="39.5633" transform="rotate(90 69.6797 525.777)" fill="black" fill-opacity="0.2"/>
<rect x="277.107" y="729.92" width="59.56" height="57.8198" transform="rotate(-180 277.107 729.92)" fill="url(#paint5_linear_16185_11022)" fill-opacity="0.4"/>
<rect x="277.107" y="729.92" width="59.56" height="57.8198" transform="rotate(-180 277.107 729.92)" fill="black" fill-opacity="0.2"/>
</g>
<g filter="url(#filter0_d_16185_11022)">
<path d="M51.0401 686.155C49.1168 683.417 47.9175 680.453 47.4423 677.262C46.9672 674.027 47.2161 670.904 48.1891 667.895C49.162 664.84 50.7799 662.181 53.0426 659.918C55.69 657.271 58.575 655.744 61.6976 655.336C64.8202 654.929 67.7618 655.744 70.5223 657.78L65.0578 663.245C63.6096 662.521 62.1728 662.328 60.7473 662.668C59.2991 662.984 57.9302 663.788 56.6404 665.078C55.2601 666.458 54.2871 668.064 53.7215 669.897C53.1784 671.707 53.0879 673.608 53.4499 675.599C53.8346 677.568 54.6605 679.457 55.9276 681.267C56.5386 682.105 57.0816 682.761 57.5568 683.236C59.3896 685.069 61.3582 685.997 63.4626 686.019C65.5895 686.019 67.5581 685.114 69.3683 683.304C70.6581 682.014 71.5632 680.543 72.0836 678.892C72.604 677.24 72.6945 675.497 72.3551 673.665L77.8197 668.2C79.0189 671.843 79.1773 675.463 78.2948 679.061C77.4124 682.614 75.6474 685.714 73 688.361C71.0088 690.352 68.8479 691.721 66.5173 692.468C64.1866 693.169 61.8673 693.203 59.5593 692.57C57.2513 691.936 55.147 690.669 53.2463 688.768C52.4543 687.976 51.7189 687.105 51.0401 686.155ZM72.1032 638.618L92.7734 668.18L87.9877 672.966L67.3175 643.403L72.1032 638.618ZM88.4398 653.575C86.8785 651.335 85.8603 648.982 85.3851 646.515C84.9325 644.026 85.0344 641.662 85.6906 639.421C86.3467 637.181 87.4781 635.258 89.0847 633.651C90.4876 632.249 91.947 631.355 93.4631 630.97C95.0017 630.563 96.4273 630.563 97.7396 630.97L95.5335 627.814L100.319 623.028L115.796 645.158L111.011 649.943L108.771 646.685C108.906 648.314 108.669 650.022 108.058 651.81C107.447 653.552 106.44 655.125 105.037 656.528C103.657 657.908 102.129 658.824 100.455 659.277C98.7579 659.707 97.0495 659.65 95.3298 659.107C93.5875 658.542 91.9583 657.501 90.4423 655.985C89.7409 655.283 89.0733 654.48 88.4398 653.575ZM103.272 638.878C102.774 638.2 102.39 637.724 102.118 637.453C100.783 636.118 99.3462 635.473 97.8075 635.518C96.2915 635.541 94.9452 636.14 93.7685 637.317C92.8861 638.2 92.2412 639.274 91.8339 640.542C91.4492 641.786 91.37 643.132 91.5963 644.581C91.8 646.006 92.3656 647.386 93.2934 648.721C93.6554 649.219 94.0288 649.66 94.4134 650.045C95.7711 651.403 97.2305 652.093 98.7918 652.115C100.33 652.115 101.688 651.527 102.865 650.351C103.747 649.468 104.392 648.393 104.799 647.126C105.184 645.836 105.252 644.479 105.003 643.053C104.777 641.605 104.2 640.213 103.272 638.878ZM105.537 613.33C104.79 614.076 103.976 614.461 103.093 614.484C102.211 614.506 101.442 614.19 100.785 613.533C99.8802 612.628 99.4503 611.52 99.4956 610.207C99.5408 608.85 100.027 607.707 100.955 606.779C101.679 606.055 102.482 605.682 103.365 605.659C104.247 605.636 105.017 605.953 105.673 606.609C106.578 607.515 107.019 608.635 106.997 609.97C106.951 611.282 106.465 612.402 105.537 613.33ZM109.746 613.601L125.223 635.731L120.437 640.517L104.96 618.387L109.746 613.601ZM137.554 585.25C139.546 583.258 141.65 582.218 143.867 582.127C146.085 582.036 148.167 582.964 150.113 584.91C150.837 585.634 151.425 586.336 151.878 587.015L160.94 600.014L156.222 604.732L147.669 592.513C147.329 592.038 146.967 591.608 146.583 591.223C145.497 590.137 144.365 589.617 143.189 589.662C142.012 589.662 140.869 590.216 139.761 591.325C138.448 592.637 137.735 594.142 137.622 595.839C137.487 597.514 138.041 599.199 139.285 600.896L139.252 600.862L147.805 613.149L143.087 617.867L134.534 605.648C134.194 605.173 133.844 604.754 133.482 604.392C132.373 603.284 131.23 602.752 130.053 602.797C128.854 602.82 127.7 603.385 126.591 604.494C125.347 605.739 124.646 607.187 124.487 608.839C124.329 610.445 124.793 612.063 125.879 613.692L134.669 626.284L129.884 631.07L114.407 608.94L119.192 604.155L121.025 606.802C121.002 605.286 121.285 603.781 121.874 602.288C122.462 600.795 123.333 599.471 124.487 598.317C125.958 596.846 127.53 595.907 129.205 595.5C130.857 595.07 132.475 595.217 134.059 595.941C133.764 594.063 133.923 592.162 134.534 590.239C135.167 588.293 136.174 586.63 137.554 585.25ZM99.5872 696.009L102.642 700.422L96.3628 706.701L112.79 730.188L108.005 734.974L91.5771 711.486L85.2641 717.799L82.2094 713.387L99.5872 696.009ZM107.636 693.255C106.89 694.002 106.075 694.386 105.193 694.409C104.31 694.432 103.541 694.115 102.885 693.459C101.979 692.553 101.55 691.445 101.595 690.132C101.64 688.775 102.127 687.632 103.054 686.704C103.778 685.98 104.582 685.607 105.464 685.584C106.347 685.562 107.116 685.878 107.772 686.535C108.677 687.44 109.118 688.56 109.096 689.895C109.051 691.207 108.564 692.327 107.636 693.255ZM111.845 693.526L127.322 715.656L122.536 720.442L107.059 698.312L111.845 693.526ZM123.056 701.118C121.45 698.833 120.443 696.446 120.036 693.957C119.606 691.445 119.764 689.024 120.511 686.693C121.258 684.318 122.536 682.224 124.346 680.414C126.677 678.084 129.075 676.839 131.542 676.681C134.031 676.5 136.418 677.394 138.703 679.362L133.578 684.487C132.628 683.808 131.644 683.526 130.625 683.639C129.584 683.729 128.589 684.25 127.639 685.2C126.281 686.558 125.613 688.221 125.636 690.189C125.659 692.113 126.417 694.138 127.91 696.265C128.43 697.012 128.917 697.611 129.37 698.064C130.659 699.353 131.972 700.032 133.307 700.1C134.619 700.145 135.841 699.602 136.972 698.471C138.873 696.57 139.416 694.308 138.601 691.683L143.727 686.558C144.881 689.477 145.175 692.418 144.609 695.382C144.066 698.324 142.652 700.937 140.366 703.223C137.991 705.599 135.422 706.832 132.662 706.922C129.901 706.968 127.367 705.836 125.059 703.528C124.358 702.827 123.69 702.023 123.056 701.118ZM153.657 670.518L169.711 673.268L163.567 679.411L150.636 676.39L157.186 685.792L152.401 690.578L131.731 661.015L136.516 656.229L148.26 672.996L147.988 657.383L154.2 651.172L153.657 670.518ZM164.721 640.04C167.119 637.641 169.687 636.408 172.425 636.34C175.141 636.25 177.618 637.324 179.859 639.565C180.583 640.289 181.171 640.99 181.623 641.669C182.167 642.484 182.608 643.219 182.947 643.875L169.201 657.621C169.337 657.802 169.552 658.04 169.846 658.334C171.023 659.511 172.29 660.099 173.647 660.099C175.005 660.054 176.249 659.465 177.381 658.334C178.331 657.384 178.942 656.365 179.214 655.279C179.485 654.148 179.496 653.028 179.248 651.919L184.373 646.794C185.346 649.441 185.538 652.236 184.95 655.177C184.361 658.074 182.958 660.631 180.741 662.848C178.342 665.247 175.74 666.491 172.935 666.582C170.129 666.672 167.561 665.552 165.23 663.222C164.551 662.543 163.906 661.762 163.295 660.88C161.689 658.594 160.67 656.196 160.241 653.684C159.833 651.15 160.014 648.706 160.784 646.353C161.553 644 162.865 641.895 164.721 640.04ZM175.786 645.267C175.469 644.859 175.231 644.577 175.073 644.418C173.987 643.332 172.787 642.834 171.475 642.925C170.163 643.015 168.941 643.626 167.809 644.758C166.61 645.957 165.92 647.416 165.739 649.136C165.535 650.833 165.897 652.53 166.825 654.227L175.786 645.267ZM193.95 637.42C194.064 637.578 194.233 637.771 194.46 637.997C194.912 638.449 195.365 638.653 195.817 638.608C196.27 638.517 196.802 638.167 197.412 637.556L199.653 635.316L202.945 640.033L199.924 643.054C196.53 646.448 193.419 646.731 190.59 643.903C190.047 643.36 189.561 642.783 189.131 642.172L181.664 631.514L179.424 633.754L176.199 629.172L178.473 626.898L174.638 621.434L179.424 616.648L183.259 622.112L187.434 617.938L190.658 622.52L186.449 626.728L193.95 637.42Z" fill="white"/>
</g>
</g>
<defs>
<filter id="filter0_d_16185_11022" x="16.106" y="549.119" width="210.437" height="210.437" filterUnits="userSpaceOnUse" color-interpolation-filters="sRGB">
<feFlood flood-opacity="0" result="BackgroundImageFix"/>
<feColorMatrix in="SourceAlpha" type="matrix" values="0 0 0 0 0 0 0 0 0 0 0 0 0 0 0 0 0 0 127 0" result="hardAlpha"/>
<feOffset/>
<feGaussianBlur stdDeviation="10"/>
<feComposite in2="hardAlpha" operator="out"/>
<feColorMatrix type="matrix" values="0 0 0 0 0 0 0 0 0 0 0 0 0 0 0 0 0 0 0.25 0"/>
<feBlend mode="normal" in2="BackgroundImageFix" result="effect1_dropShadow_16185_11022"/>
<feBlend mode="normal" in="SourceGraphic" in2="effect1_dropShadow_16185_11022" result="shape"/>
</filter>
<linearGradient id="paint0_linear_16185_11022" x1="496.065" y1="152.839" x2="-263.797" y2="921.474" gradientUnits="userSpaceOnUse">
<stop stop-color="#0CFFF0"/>
<stop offset="1" stop-color="#0CFFA7"/>
</linearGradient>
<linearGradient id="paint1_linear_16185_11022" x1="1.60791" y1="705.905" x2="268.005" y2="704.816" gradientUnits="userSpaceOnUse">
<stop stop-color="#0CFFF0"/>
<stop offset="1" stop-color="#0CFFA7"/>
</linearGradient>
<linearGradient id="paint2_linear_16185_11022" x1="80.155" y1="531.236" x2="115.863" y2="531.09" gradientUnits="userSpaceOnUse">
<stop stop-color="#0CFFF0"/>
<stop offset="1" stop-color="#0CFFA7"/>
</linearGradient>
<linearGradient id="paint3_linear_16185_11022" x1="291.973" y1="768.073" x2="344.158" y2="767.86" gradientUnits="userSpaceOnUse">
<stop stop-color="#0CFFF0"/>
<stop offset="1" stop-color="#0CFFA7"/>
</linearGradient>
<linearGradient id="paint4_linear_16185_11022" x1="69.6797" y1="550.123" x2="125.296" y2="549.896" gradientUnits="userSpaceOnUse">
<stop stop-color="#0CFFF0"/>
<stop offset="1" stop-color="#0CFFA7"/>
</linearGradient>
<linearGradient id="paint5_linear_16185_11022" x1="277.107" y1="765.501" x2="358.388" y2="765.169" gradientUnits="userSpaceOnUse">
<stop stop-color="#0CFFF0"/>
<stop offset="1" stop-color="#0CFFA7"/>
</linearGradient>
<clipPath id="clip0_16185_11022">
<rect width="349" height="782" rx="20" fill="white"/>
</clipPath>
</defs>
</svg>
