<svg width="414" height="683" viewBox="0 0 414 683" fill="none" xmlns="http://www.w3.org/2000/svg">
<g clip-path="url(#clip0_16185_10993)">
<path d="M391.82 2.00038L44.8312 2.00039L22.3946 2.00031C10.8009 2.00026 1.40054 11.3957 1.39454 22.9894L1.06327 660.061C1.05721 671.656 10.45 681.062 22.0451 681.072L391.801 681.391C403.407 681.401 412.82 671.996 412.82 660.391L412.82 23.0004C412.82 11.4024 403.418 2.00036 391.82 2.00038Z" stroke="url(#paint0_linear_16185_10993)" stroke-width="2"/>
<mask id="mask0_16185_10993" style="mask-type:alpha" maskUnits="userSpaceOnUse" x="2" y="3" width="410" height="678">
<path d="M44.831 3.00038L391.82 3.00044C402.865 3.00044 411.82 11.9547 411.82 23.0004L411.82 660.391C411.82 671.444 402.855 680.401 391.802 680.391L22.0458 680.072C11.0027 680.062 2.0573 671.104 2.06308 660.061L2.39485 22.9899C2.40057 11.9482 11.3533 3.00028 22.3949 3.00034L44.831 3.00038Z" fill="url(#paint1_linear_16185_10993)"/>
</mask>
<g mask="url(#mask0_16185_10993)">
<rect x="0.637207" y="495.785" width="191.272" height="185.684" fill="url(#paint2_linear_16185_10993)" fill-opacity="0.4"/>
<rect x="0.637207" y="495.785" width="191.272" height="185.684" fill="black" fill-opacity="0.4"/>
<rect x="221.889" y="597.449" width="47.7557" height="46.3603" fill="url(#paint3_linear_16185_10993)" fill-opacity="0.4"/>
<rect x="221.889" y="597.449" width="47.7557" height="46.3603" fill="black" fill-opacity="0.2"/>
<rect x="245.834" y="548.179" width="74.4096" height="72.2355" fill="url(#paint4_linear_16185_10993)" fill-opacity="0.4"/>
<rect x="245.834" y="548.179" width="74.4096" height="72.2355" fill="black" fill-opacity="0.2"/>
<rect x="29.5784" y="465.751" width="38.7904" height="38.7904" transform="rotate(-90 29.5784 465.751)" fill="url(#paint5_linear_16185_10993)" fill-opacity="0.4"/>
<rect x="29.5784" y="465.751" width="38.7904" height="38.7904" transform="rotate(-90 29.5784 465.751)" fill="black" fill-opacity="0.2"/>
<rect x="58.136" y="476.914" width="21.3958" height="21.3958" transform="rotate(-90 58.136 476.914)" fill="url(#paint6_linear_16185_10993)" fill-opacity="0.4"/>
<rect x="58.136" y="476.914" width="21.3958" height="21.3958" transform="rotate(-90 58.136 476.914)" fill="black" fill-opacity="0.2"/>
</g>
<g filter="url(#filter0_d_16185_10993)">
<path d="M61.0044 606.728C58.6285 609.104 56.1395 610.529 53.5373 611.004C50.9352 611.434 48.6611 610.676 46.7151 608.73C46.5115 608.527 46.2287 608.199 45.8666 607.746L50.7202 602.893C51.58 603.933 52.6096 604.465 53.8088 604.488C55.0307 604.488 56.2187 603.911 57.3727 602.757C58.5267 601.603 59.1942 600.46 59.3752 599.329C59.5562 598.152 59.1942 597.111 58.2891 596.206C57.4518 595.369 56.4336 595.052 55.2344 595.256C54.0577 595.437 52.4286 595.957 50.3468 596.817C48.4235 597.609 46.7943 598.197 45.4593 598.582C44.1469 598.944 42.7667 599.012 41.3185 598.786C39.8703 598.514 38.5014 597.733 37.2116 596.444C35.7408 594.973 34.8357 593.321 34.4963 591.488C34.1796 589.633 34.3832 587.755 35.1073 585.854C35.854 583.931 37.0759 582.121 38.7729 580.424C40.4473 578.749 42.1783 577.584 43.9659 576.928C45.7535 576.226 47.4618 576.079 49.091 576.486C50.7428 576.871 52.2023 577.787 53.4694 579.236L48.4122 584.293L48.0728 583.886C47.3261 583.139 46.4323 582.811 45.3914 582.901C44.3732 582.969 43.3663 583.501 42.3707 584.496C41.3072 585.56 40.6962 586.669 40.5379 587.823C40.3795 588.977 40.7302 589.984 41.59 590.843C42.1557 591.409 42.8345 591.726 43.6265 591.794C44.4185 591.816 45.2444 591.715 46.1042 591.488C46.9414 591.239 48.1067 590.843 49.6001 590.3C51.5235 589.554 53.1753 589.011 54.5555 588.671C55.9358 588.332 57.3613 588.287 58.8321 588.535C60.3029 588.784 61.6605 589.531 62.9051 590.776C64.2627 592.133 65.0999 593.717 65.4167 595.527C65.7561 597.315 65.5525 599.193 64.8058 601.162C64.0591 603.085 62.7919 604.94 61.0044 606.728ZM74.7624 554.888L90.2396 577.017L85.4878 581.769L83.5193 578.986C83.6098 580.525 83.3609 582.063 82.7725 583.602C82.1616 585.118 81.2678 586.464 80.0912 587.641C78.1452 589.587 76.0861 590.605 73.9139 590.696C71.7191 590.764 69.6486 589.825 67.7027 587.879C66.9786 587.155 66.3903 586.453 65.9377 585.774L56.8415 572.809L61.5933 568.057L70.1125 580.242C70.4519 580.717 70.814 581.147 71.1986 581.532C72.3074 582.64 73.4727 583.195 74.6946 583.195C75.8938 583.172 77.0478 582.606 78.1566 581.498C79.4463 580.208 80.1478 578.715 80.2609 577.017C80.3514 575.298 79.7744 573.567 78.5299 571.824L70.0107 559.64L74.7624 554.888ZM102.599 526.509C104.59 524.517 106.694 523.476 108.912 523.386C111.129 523.295 113.211 524.223 115.157 526.169C115.881 526.893 116.469 527.595 116.922 528.274L125.984 541.273L121.266 545.991L112.713 533.772C112.374 533.297 112.012 532.867 111.627 532.482C110.541 531.396 109.41 530.876 108.233 530.921C107.056 530.921 105.914 531.475 104.805 532.584C103.492 533.896 102.78 535.401 102.667 537.098C102.531 538.773 103.085 540.458 104.33 542.155L104.296 542.121L112.849 554.408L108.131 559.126L99.5779 546.907C99.2385 546.432 98.8878 546.013 98.5257 545.651C97.417 544.543 96.2743 544.011 95.0977 544.056C93.8984 544.079 92.7444 544.644 91.6357 545.753C90.3912 546.998 89.6897 548.446 89.5313 550.098C89.3729 551.704 89.8368 553.322 90.9229 554.951L99.7137 567.543L94.928 572.329L79.4508 550.199L84.2365 545.414L86.0693 548.061C86.0467 546.545 86.3296 545.04 86.9179 543.547C87.5062 542.054 88.3773 540.73 89.5313 539.576C91.0021 538.105 92.5747 537.166 94.2492 536.759C95.901 536.329 97.5188 536.476 99.1027 537.2C98.8086 535.322 98.967 533.421 99.5779 531.498C100.211 529.552 101.218 527.889 102.599 526.509ZM138.164 490.943C140.155 488.952 142.259 487.911 144.477 487.821C146.694 487.73 148.776 488.658 150.722 490.604C151.446 491.328 152.035 492.029 152.487 492.708L161.549 505.708L156.832 510.426L148.278 498.207C147.939 497.732 147.577 497.302 147.192 496.917C146.106 495.831 144.975 495.31 143.798 495.356C142.622 495.356 141.479 495.91 140.37 497.019C139.058 498.331 138.345 499.836 138.232 501.533C138.096 503.207 138.65 504.893 139.895 506.59L139.861 506.556L148.414 518.843L143.696 523.561L135.143 511.342C134.804 510.867 134.453 510.448 134.091 510.086C132.982 508.977 131.84 508.446 130.663 508.491C129.464 508.514 128.31 509.079 127.201 510.188C125.956 511.432 125.255 512.881 125.097 514.532C124.938 516.139 125.402 517.757 126.488 519.386L135.279 531.978L130.493 536.764L115.016 514.634L119.802 509.849L121.635 512.496C121.612 510.98 121.895 509.475 122.483 507.982C123.071 506.488 123.943 505.165 125.097 504.011C126.567 502.54 128.14 501.601 129.814 501.194C131.466 500.764 133.084 500.911 134.668 501.635C134.374 499.757 134.532 497.856 135.143 495.933C135.777 493.987 136.784 492.324 138.164 490.943ZM174.781 493.087C173.175 494.693 171.421 495.791 169.52 496.379C167.642 496.945 165.764 496.967 163.886 496.447C162.008 495.926 160.289 494.886 158.727 493.324C156.6 491.197 155.163 488.765 154.417 486.027C153.67 483.244 153.659 480.472 154.383 477.711C155.129 474.928 156.578 472.462 158.727 470.312C160.334 468.706 162.099 467.619 164.022 467.054C165.945 466.443 167.846 466.398 169.724 466.918C171.625 467.416 173.356 468.445 174.917 470.007C177.067 472.156 178.504 474.611 179.228 477.372C179.952 480.132 179.929 482.916 179.16 485.721C178.39 488.482 176.931 490.937 174.781 493.087ZM171.353 488.369C172.485 487.237 173.186 485.88 173.458 484.296C173.729 482.712 173.582 481.117 173.016 479.51C172.451 477.904 171.568 476.501 170.369 475.301C169.011 473.944 167.586 473.288 166.092 473.333C164.599 473.333 163.275 473.91 162.121 475.064C160.967 476.218 160.266 477.576 160.017 479.137C159.791 480.676 159.983 482.248 160.594 483.855C161.182 485.439 162.087 486.841 163.309 488.063C164.644 489.398 166.025 490.077 167.45 490.1C168.898 490.1 170.199 489.523 171.353 488.369ZM182.408 446.699C184.354 444.754 186.413 443.758 188.585 443.713C190.757 443.622 192.816 444.55 194.762 446.496C195.486 447.22 196.086 447.933 196.561 448.634L205.624 461.634L200.906 466.351L192.353 454.133C192.013 453.657 191.651 453.227 191.266 452.843C190.135 451.711 188.97 451.157 187.77 451.18C186.594 451.18 185.451 451.734 184.342 452.843C183.075 454.11 182.374 455.581 182.238 457.255C182.102 458.884 182.6 460.559 183.731 462.278L192.488 474.769L187.703 479.554L172.225 457.425L177.011 452.639L178.912 455.354C178.889 453.793 179.183 452.254 179.794 450.738C180.383 449.2 181.254 447.853 182.408 446.699ZM93.9725 647.502L102.322 639.153L105.512 643.769L91.7663 657.515L88.6098 653.001L87.6934 631.788L79.5136 639.968L76.2892 635.386L89.9335 621.741L93.124 626.221L93.9725 647.502ZM110.447 620.031L126.502 622.78L120.358 628.923L107.427 625.902L113.977 635.304L109.192 640.09L88.5215 610.527L93.3072 605.741L105.051 622.508L104.779 606.895L110.991 600.684L110.447 620.031ZM118.118 607.405C116.194 604.667 115.006 601.692 114.554 598.479C114.079 595.243 114.339 592.109 115.334 589.077C116.307 586.022 117.925 583.363 120.188 581.101C122.858 578.431 125.709 576.892 128.741 576.485C131.773 576.032 134.647 576.801 137.362 578.793L131.898 584.257C130.54 583.624 129.171 583.477 127.791 583.816C126.411 584.155 125.087 584.959 123.82 586.226C122.417 587.629 121.433 589.247 120.867 591.079C120.301 592.912 120.199 594.824 120.561 596.815C120.923 598.807 121.738 600.707 123.005 602.518C123.435 603.174 124.001 603.853 124.702 604.554C126.558 606.409 128.56 607.326 130.71 607.303C132.859 607.235 134.896 606.24 136.819 604.316C138.607 602.529 139.682 600.481 140.044 598.173C140.428 595.842 140.089 593.489 139.025 591.113L130.879 599.259L127.893 595.05L140.722 582.221L144.117 587.108C145.157 589.371 145.734 591.849 145.848 594.541C145.961 597.234 145.553 599.904 144.626 602.551C143.675 605.176 142.182 607.507 140.145 609.543C138.132 611.557 135.948 612.926 133.595 613.65C131.264 614.352 128.945 614.408 126.637 613.82C124.329 613.186 122.213 611.908 120.29 609.985C119.521 609.215 118.796 608.355 118.118 607.405ZM140.165 567.029C139.418 567.776 138.604 568.161 137.721 568.183C136.839 568.206 136.069 567.889 135.413 567.233C134.508 566.328 134.078 565.219 134.124 563.907C134.169 562.549 134.655 561.407 135.583 560.479C136.307 559.755 137.11 559.381 137.993 559.359C138.875 559.336 139.645 559.653 140.301 560.309C141.206 561.214 141.647 562.334 141.625 563.669C141.579 564.982 141.093 566.102 140.165 567.029ZM144.374 567.301L159.851 589.431L155.065 594.216L139.588 572.087L144.374 567.301ZM156.569 561.758C156.253 559.812 156.321 557.979 156.773 556.259C157.226 554.54 158.086 553.046 159.353 551.779L163.46 557.651L162.204 558.907C160.801 560.31 159.975 561.746 159.726 563.217C159.5 564.665 159.93 566.317 161.016 568.173L169.297 579.984L164.512 584.77L149.035 562.64L153.82 557.854L156.569 561.758ZM162.35 536.699L183.02 566.262L178.234 571.047L157.564 541.485L162.35 536.699ZM195.351 554.541C193.971 555.921 192.489 556.951 190.905 557.63C189.321 558.263 187.794 558.501 186.323 558.343C184.852 558.139 183.585 557.505 182.521 556.442C182.363 556.284 182.125 556.001 181.809 555.593L186.425 550.977C187.149 551.837 188.031 552.245 189.072 552.199C190.09 552.131 191.097 551.6 192.093 550.604C192.998 549.699 193.586 548.794 193.858 547.889C194.129 546.938 193.948 546.146 193.315 545.513C192.749 544.947 192.014 544.777 191.109 545.004C190.226 545.207 188.97 545.694 187.341 546.463C185.712 547.233 184.298 547.81 183.098 548.194C181.899 548.579 180.655 548.692 179.365 548.534C178.075 548.375 176.876 547.742 175.767 546.633C174.658 545.524 173.991 544.223 173.765 542.73C173.561 541.214 173.799 539.641 174.477 538.012C175.156 536.383 176.242 534.821 177.736 533.328C179.161 531.902 180.655 530.884 182.216 530.273C183.777 529.662 185.282 529.493 186.73 529.764C188.178 529.99 189.445 530.647 190.532 531.733C190.803 532.004 190.995 532.219 191.109 532.378L186.696 536.79C185.972 535.93 185.112 535.523 184.117 535.568C183.121 535.613 182.125 536.134 181.13 537.129C180.315 537.944 179.829 538.793 179.67 539.675C179.489 540.535 179.693 541.259 180.281 541.847C180.87 542.436 181.65 542.628 182.623 542.424C183.574 542.198 184.886 541.7 186.56 540.931C188.257 540.184 189.672 539.652 190.803 539.336C191.934 538.974 193.122 538.872 194.367 539.03C195.589 539.166 196.72 539.754 197.761 540.795C198.915 541.949 199.571 543.307 199.73 544.868C199.888 546.429 199.583 548.047 198.813 549.722C198.044 551.396 196.89 553.003 195.351 554.541Z" fill="white"/>
</g>
</g>
<defs>
<filter id="filter0_d_16185_10993" x="6.72388" y="415.465" width="262.356" height="262.356" filterUnits="userSpaceOnUse" color-interpolation-filters="sRGB">
<feFlood flood-opacity="0" result="BackgroundImageFix"/>
<feColorMatrix in="SourceAlpha" type="matrix" values="0 0 0 0 0 0 0 0 0 0 0 0 0 0 0 0 0 0 127 0" result="hardAlpha"/>
<feOffset/>
<feGaussianBlur stdDeviation="10"/>
<feComposite in2="hardAlpha" operator="out"/>
<feColorMatrix type="matrix" values="0 0 0 0 0 0 0 0 0 0 0 0 0 0 0 0 0 0 0.25 0"/>
<feBlend mode="normal" in2="BackgroundImageFix" result="effect1_dropShadow_16185_10993"/>
<feBlend mode="normal" in="SourceGraphic" in2="effect1_dropShadow_16185_10993" result="shape"/>
</filter>
<linearGradient id="paint0_linear_16185_10993" x1="245.68" y1="203.849" x2="-244.152" y2="696.37" gradientUnits="userSpaceOnUse">
<stop stop-color="#0CFFF0"/>
<stop offset="1" stop-color="#0CFFA7"/>
</linearGradient>
<linearGradient id="paint1_linear_16185_10993" x1="5.58676" y1="683.591" x2="429.144" y2="260.034" gradientUnits="userSpaceOnUse">
<stop/>
<stop offset="0.305529" stop-color="#1A1D22"/>
<stop offset="1" stop-color="#191C22"/>
</linearGradient>
<linearGradient id="paint2_linear_16185_10993" x1="0.637207" y1="610.052" x2="261.663" y2="608.985" gradientUnits="userSpaceOnUse">
<stop stop-color="#0CFFF0"/>
<stop offset="1" stop-color="#0CFFA7"/>
</linearGradient>
<linearGradient id="paint3_linear_16185_10993" x1="221.889" y1="625.978" x2="287.06" y2="625.712" gradientUnits="userSpaceOnUse">
<stop stop-color="#0CFFF0"/>
<stop offset="1" stop-color="#0CFFA7"/>
</linearGradient>
<linearGradient id="paint4_linear_16185_10993" x1="245.834" y1="592.632" x2="347.379" y2="592.217" gradientUnits="userSpaceOnUse">
<stop stop-color="#0CFFF0"/>
<stop offset="1" stop-color="#0CFFA7"/>
</linearGradient>
<linearGradient id="paint5_linear_16185_10993" x1="29.5784" y1="489.622" x2="82.515" y2="489.412" gradientUnits="userSpaceOnUse">
<stop stop-color="#0CFFF0"/>
<stop offset="1" stop-color="#0CFFA7"/>
</linearGradient>
<linearGradient id="paint6_linear_16185_10993" x1="58.136" y1="490.081" x2="87.3345" y2="489.965" gradientUnits="userSpaceOnUse">
<stop stop-color="#0CFFF0"/>
<stop offset="1" stop-color="#0CFFA7"/>
</linearGradient>
<clipPath id="clip0_16185_10993">
<rect width="414" height="683" rx="20" fill="white"/>
</clipPath>
</defs>
</svg>
