<svg width="414" height="849" viewBox="0 0 414 849" fill="none" xmlns="http://www.w3.org/2000/svg">
<path d="M1.40493 826.777C1.40493 838.375 10.807 847.777 22.4049 847.777L391.82 847.777C403.418 847.777 412.82 838.375 412.82 826.777V21.8191C412.82 10.2069 403.396 0.799016 391.783 0.819063L22.3681 1.45757C10.7844 1.47754 1.40442 10.8737 1.40443 22.4575L1.40493 826.777Z" stroke="url(#paint0_linear_17197_30866)" stroke-width="2"/>
<mask id="mask0_17197_30866" style="mask-type:alpha" maskUnits="userSpaceOnUse" x="2" y="1" width="410" height="846">
<path d="M22.405 846.777C11.3593 846.777 2.40493 837.823 2.40493 826.777L2.40442 22.4575C2.40443 11.4253 11.3377 2.47661 22.3699 2.45756L391.785 1.81904C402.844 1.79994 411.82 10.7598 411.82 21.819L411.82 826.777C411.82 837.823 402.865 846.777 391.82 846.777L22.405 846.777Z" fill="url(#paint1_linear_17197_30866)"/>
<path d="M22.405 846.777C11.3593 846.777 2.40493 837.823 2.40493 826.777L2.40442 22.4575C2.40443 11.4253 11.3377 2.47661 22.3699 2.45756L391.785 1.81904C402.844 1.79994 411.82 10.7598 411.82 21.819L411.82 826.777C411.82 837.823 402.865 846.777 391.82 846.777L22.405 846.777Z" fill="white"/>
</mask>
<g mask="url(#mask0_17197_30866)">
<rect x="2.24561" y="433.12" width="210.504" height="204.354" fill="url(#paint2_linear_17197_30866)" fill-opacity="0.4"/>
<rect x="2.24561" y="433.12" width="210.504" height="204.354" fill="black" fill-opacity="0.3"/>
<rect x="1.33667" y="659.755" width="56.4425" height="54.7934" fill="url(#paint3_linear_17197_30866)" fill-opacity="0.4"/>
<rect x="1.33667" y="659.755" width="56.4425" height="54.7934" fill="black" fill-opacity="0.2"/>
<rect x="31.0352" y="689.454" width="56.4425" height="54.7934" fill="url(#paint4_linear_17197_30866)" fill-opacity="0.4"/>
<rect x="31.0352" y="689.454" width="56.4425" height="54.7934" fill="black" fill-opacity="0.2"/>
<rect x="241.227" y="487.748" width="56.4425" height="54.7934" fill="url(#paint5_linear_17197_30866)" fill-opacity="0.4"/>
<rect x="241.227" y="487.748" width="56.4425" height="54.7934" fill="black" fill-opacity="0.2"/>
<rect x="269.511" y="459.463" width="56.4425" height="54.7934" fill="url(#paint6_linear_17197_30866)" fill-opacity="0.4"/>
<rect x="269.511" y="459.463" width="56.4425" height="54.7934" fill="black" fill-opacity="0.2"/>
</g>
<g filter="url(#filter0_d_17197_30866)">
<path d="M41.1487 541.448L60.6648 569.314L55.8791 574.1L43.253 556.043L49.5661 580.413L45.9344 584.044L26.9273 572.301L39.5874 590.391L34.8017 595.177L15.3195 567.277L20.7161 561.881L42.7439 575.016L35.752 546.845L41.1487 541.448ZM53.0082 539.364L68.655 549.987L62.8171 529.555L67.8744 524.497L79.041 568.723L73.9838 573.78L70.3181 558.71L47.6794 544.692L53.0082 539.364ZM65.2242 599.397C67.6454 596.976 70.0326 595.697 72.3858 595.562C74.7164 595.403 76.7642 596.207 78.5291 597.971C78.9591 598.401 79.3664 598.877 79.751 599.397C81.0182 601.207 81.7196 603.312 81.8554 605.71C81.9911 608.063 81.3689 610.428 79.9886 612.804L93.5651 618.438L88.0327 623.97L75.2708 618.268L72.9967 620.542L80.5996 631.403L75.8139 636.189L56.3317 608.29L65.2242 599.397ZM74.9653 604.386C74.6033 603.934 74.3544 603.64 74.2186 603.504C73.3588 602.644 72.4197 602.248 71.4015 602.316C70.3833 602.384 69.3198 602.972 68.211 604.081L64.2399 608.052L70.0778 616.401L74.0489 612.43C75.3161 611.163 76.0062 609.84 76.1193 608.459C76.2551 607.056 75.8704 605.699 74.9653 604.386ZM90.0564 583.729C92.4549 581.33 95.0231 580.097 97.761 580.029C100.476 579.939 102.954 581.014 105.194 583.254C105.918 583.978 106.507 584.679 106.959 585.358C107.502 586.173 107.943 586.908 108.283 587.564L94.5366 601.31C94.6724 601.491 94.8874 601.729 95.1815 602.023C96.3581 603.2 97.6253 603.788 98.9829 603.788C100.341 603.743 101.585 603.155 102.716 602.023C103.667 601.073 104.278 600.055 104.549 598.968C104.821 597.837 104.832 596.717 104.583 595.608L109.708 590.483C110.681 593.131 110.874 595.925 110.285 598.867C109.697 601.763 108.294 604.32 106.077 606.537C103.678 608.936 101.076 610.18 98.2702 610.271C95.4644 610.361 92.8961 609.241 90.5655 606.911C89.8867 606.232 89.2418 605.451 88.6309 604.569C87.0243 602.283 86.0061 599.885 85.5762 597.373C85.1689 594.839 85.3499 592.395 86.1192 590.042C86.8886 587.689 88.201 585.584 90.0564 583.729ZM101.121 588.956C100.804 588.549 100.567 588.266 100.408 588.107C99.3223 587.021 98.1231 586.523 96.8107 586.614C95.4983 586.704 94.2764 587.315 93.145 588.447C91.9458 589.646 91.2557 591.105 91.0746 592.825C90.871 594.522 91.233 596.219 92.1608 597.916L101.121 588.956ZM129.129 545.267L139.108 572.895L133.949 578.054L119.795 566.073L127.093 584.91L121.933 590.07L100.958 573.438L105.744 568.653L120.881 582.161L112.701 561.695L117.725 556.671L133.032 569.942L124.547 549.849L129.129 545.267ZM138.149 554.915C136.588 552.675 135.569 550.322 135.094 547.855C134.642 545.366 134.743 543.002 135.4 540.762C136.056 538.521 137.187 536.598 138.794 534.992C140.197 533.589 141.656 532.695 143.172 532.31C144.711 531.903 146.136 531.903 147.449 532.31L145.243 529.154L150.028 524.368L165.505 546.498L160.72 551.283L158.48 548.025C158.615 549.654 158.378 551.363 157.767 553.15C157.156 554.892 156.149 556.465 154.746 557.868C153.366 559.248 151.838 560.165 150.164 560.617C148.467 561.047 146.759 560.99 145.039 560.447C143.297 559.882 141.667 558.841 140.151 557.325C139.45 556.623 138.782 555.82 138.149 554.915ZM152.981 540.219C152.483 539.54 152.099 539.065 151.827 538.793C150.492 537.458 149.055 536.813 147.517 536.858C146.001 536.881 144.654 537.481 143.478 538.657C142.595 539.54 141.95 540.614 141.543 541.882C141.158 543.126 141.079 544.472 141.305 545.921C141.509 547.346 142.075 548.726 143.002 550.061C143.364 550.559 143.738 551 144.122 551.385C145.48 552.743 146.94 553.433 148.501 553.456C150.04 553.456 151.397 552.867 152.574 551.691C153.456 550.808 154.101 549.733 154.508 548.466C154.893 547.176 154.961 545.819 154.712 544.393C154.486 542.945 153.909 541.554 152.981 540.219ZM162.204 518.845C161.887 516.899 161.955 515.066 162.408 513.346C162.86 511.626 163.72 510.133 164.987 508.866L169.094 514.738L167.838 515.994C166.435 517.396 165.61 518.833 165.361 520.304C165.134 521.752 165.564 523.404 166.65 525.259L174.932 537.071L170.146 541.857L154.669 519.727L159.455 514.941L162.204 518.845ZM174.874 518.19C173.313 515.95 172.295 513.596 171.82 511.13C171.367 508.641 171.469 506.276 172.125 504.036C172.804 501.773 173.946 499.839 175.553 498.232C176.775 497.01 178.167 496.162 179.728 495.687C181.266 495.189 182.726 495.132 184.106 495.517L176.775 484.995L181.561 480.21L202.231 509.772L197.445 514.558L195.171 511.266C195.352 512.94 195.137 514.648 194.526 516.391C193.938 518.11 192.942 519.672 191.539 521.075C190.159 522.455 188.62 523.383 186.923 523.858C185.226 524.288 183.507 524.242 181.764 523.722C180.022 523.156 178.393 522.116 176.877 520.599C176.175 519.898 175.508 519.095 174.874 518.19ZM189.706 503.493C189.209 502.814 188.824 502.339 188.552 502.068C187.217 500.733 185.781 500.088 184.242 500.133C182.726 500.156 181.38 500.755 180.203 501.932C179.32 502.814 178.676 503.889 178.268 505.156C177.884 506.401 177.804 507.747 178.031 509.195C178.234 510.621 178.8 512.001 179.728 513.336C180.09 513.834 180.463 514.275 180.848 514.66C182.205 516.017 183.665 516.708 185.226 516.73C186.765 516.73 188.123 516.142 189.299 514.965C190.182 514.083 190.827 513.008 191.234 511.741C191.619 510.451 191.686 509.093 191.437 507.668C191.211 506.22 190.634 504.828 189.706 503.493Z" fill="white"/>
</g>
<defs>
<filter id="filter0_d_17197_30866" x="-8.88916" y="420.623" width="235.872" height="235.872" filterUnits="userSpaceOnUse" color-interpolation-filters="sRGB">
<feFlood flood-opacity="0" result="BackgroundImageFix"/>
<feColorMatrix in="SourceAlpha" type="matrix" values="0 0 0 0 0 0 0 0 0 0 0 0 0 0 0 0 0 0 127 0" result="hardAlpha"/>
<feOffset/>
<feGaussianBlur stdDeviation="10"/>
<feComposite in2="hardAlpha" operator="out"/>
<feColorMatrix type="matrix" values="0 0 0 0 0 0 0 0 0 0 0 0 0 0 0 0 0 0 0.25 0"/>
<feBlend mode="normal" in2="BackgroundImageFix" result="effect1_dropShadow_17197_30866"/>
<feBlend mode="normal" in="SourceGraphic" in2="effect1_dropShadow_17197_30866" result="shape"/>
</filter>
<linearGradient id="paint0_linear_17197_30866" x1="-159.957" y1="684.415" x2="690.911" y2="-176.553" gradientUnits="userSpaceOnUse">
<stop stop-color="#0CFFF0"/>
<stop offset="1" stop-color="#0CFFA7"/>
</linearGradient>
<linearGradient id="paint1_linear_17197_30866" x1="2.40499" y1="849.605" x2="665.671" y2="186.339" gradientUnits="userSpaceOnUse">
<stop stop-opacity="0"/>
<stop offset="0.328941" stop-color="#252525" stop-opacity="0"/>
<stop offset="0.604838" stop-color="#666666"/>
</linearGradient>
<linearGradient id="paint2_linear_17197_30866" x1="2.24561" y1="558.876" x2="289.517" y2="557.701" gradientUnits="userSpaceOnUse">
<stop stop-color="#0CFFF0"/>
<stop offset="1" stop-color="#0CFFA7"/>
</linearGradient>
<linearGradient id="paint3_linear_17197_30866" x1="1.33667" y1="693.474" x2="78.3628" y2="693.159" gradientUnits="userSpaceOnUse">
<stop stop-color="#0CFFF0"/>
<stop offset="1" stop-color="#0CFFA7"/>
</linearGradient>
<linearGradient id="paint4_linear_17197_30866" x1="31.0352" y1="723.173" x2="108.061" y2="722.858" gradientUnits="userSpaceOnUse">
<stop stop-color="#0CFFF0"/>
<stop offset="1" stop-color="#0CFFA7"/>
</linearGradient>
<linearGradient id="paint5_linear_17197_30866" x1="241.227" y1="521.467" x2="318.253" y2="521.152" gradientUnits="userSpaceOnUse">
<stop stop-color="#0CFFF0"/>
<stop offset="1" stop-color="#0CFFA7"/>
</linearGradient>
<linearGradient id="paint6_linear_17197_30866" x1="269.511" y1="493.182" x2="346.537" y2="492.867" gradientUnits="userSpaceOnUse">
<stop stop-color="#0CFFF0"/>
<stop offset="1" stop-color="#0CFFA7"/>
</linearGradient>
</defs>
</svg>
