<svg version="1.2" xmlns="http://www.w3.org/2000/svg" viewBox="0 0 24 24" width="24" height="24">
	<title>Pool-svg</title>
	<g id="Frame">
		<path id="Vector" d="m20 7.1c1.2 0.4 1.9 1.6 1.7 2.8l-0.1 0.3-3.3 10c-0.4 1.2-1.6 2-2.8 1.7l-0.3-0.1-6.7-2.2c-1.2-0.4-1.9-1.6-1.6-2.8v-0.3l0.1-0.2 1.4 0.5-0.1 0.2c-0.2 0.5 0.1 1 0.5 1.2l0.2 0.1 6.7 2.2c0.5 0.1 1-0.1 1.2-0.5l0.1-0.2 3.3-10.1c0.1-0.4-0.1-1-0.6-1.2l-0.1-0.1-5.5-1.8 0.5-1.3z"/>
		<path id="Vector_2" fill-rule="evenodd" d="m15 4.5v10.6c0 1.4-1.1 2.5-2.5 2.5h-7c-1.4 0-2.5-1.1-2.5-2.5v-10.6c0-1.3 1.1-2.4 2.5-2.4h7c1.4 0 2.5 1.1 2.5 2.4zm-10.6 0v10.6c0 0.6 0.5 1.1 1.1 1.1h7c0.6 0 1.1-0.5 1.1-1.1v-10.6c0-0.6-0.5-1-1.1-1h-7c-0.6 0-1.1 0.5-1.1 1z"/>
	</g>
</svg>