<svg xmlns="http://www.w3.org/2000/svg" width="40" height="40" viewBox="0 0 40 40" fill="none">
  <path d="M35.4777 9.61286C34.4062 10.0746 33.2797 10.3962 32.1261 10.5696C32.6654 10.477 33.459 9.50485 33.7749 9.11135C34.2548 8.51781 34.6206 7.84023 34.8536 7.11303C34.8536 7.05902 34.9075 6.98186 34.8536 6.94329C34.8264 6.92843 34.796 6.92064 34.765 6.92064C34.734 6.92064 34.7036 6.92843 34.6764 6.94329C33.4237 7.62258 32.0906 8.14104 30.7084 8.48639C30.6602 8.50113 30.6089 8.50245 30.5601 8.49022C30.5112 8.47799 30.4666 8.45266 30.431 8.41695C30.3234 8.28867 30.2076 8.16753 30.0843 8.05432C29.5206 7.54853 28.881 7.13456 28.1889 6.82755C27.2547 6.44376 26.2457 6.27755 25.2379 6.34147C24.2601 6.40331 23.3055 6.66594 22.4334 7.11303C21.5746 7.58439 20.8198 8.22475 20.2144 8.99562C19.5776 9.78905 19.1178 10.7098 18.866 11.6961C18.6584 12.6342 18.6349 13.6037 18.7967 14.5508C18.7967 14.7128 18.7967 14.736 18.658 14.7128C13.1644 13.9027 8.65709 11.9507 4.97416 7.76113C4.81236 7.57596 4.72761 7.57596 4.59663 7.76113C2.99402 10.1992 3.77221 14.057 5.77547 15.9628C6.04514 16.2174 6.32251 16.4643 6.6153 16.6957C5.69682 16.6304 4.80076 16.3812 3.98024 15.9628C3.82614 15.8624 3.74139 15.9165 3.73368 16.1016C3.71184 16.3583 3.71184 16.6165 3.73368 16.8732C3.89445 18.1035 4.37864 19.269 5.13674 20.2505C5.89484 21.2319 6.89964 21.9942 8.0484 22.4592C8.32844 22.5793 8.62024 22.6699 8.91905 22.7293C8.06876 22.8969 7.19668 22.923 6.33792 22.8064C6.15301 22.7679 6.08366 22.8682 6.15301 23.0456C7.28562 26.1318 9.74347 27.0731 11.5464 27.5978C11.793 27.6364 12.0395 27.6364 12.3169 27.6981C12.3169 27.6981 12.3169 27.6981 12.2707 27.7444C11.739 28.7165 9.58937 29.3724 8.60315 29.7118C6.80304 30.3593 4.8838 30.6068 2.97861 30.4371C2.67812 30.3908 2.60877 30.3985 2.53172 30.4371C2.45468 30.4757 2.53172 30.5606 2.61648 30.6377C3.00172 30.8923 3.38696 31.1161 3.78762 31.3321C4.98036 31.9836 6.24134 32.5011 7.54759 32.8752C14.3125 34.7424 21.9249 33.369 27.0024 28.3153C30.9935 24.3495 32.3958 18.8792 32.3958 13.4012C32.3958 13.1929 32.65 13.0694 32.7964 12.9614C33.8061 12.1736 34.6963 11.2431 35.4392 10.1992C35.5678 10.0436 35.6338 9.84551 35.6241 9.64373C35.6241 9.52799 35.6241 9.55114 35.4777 9.61286Z" fill="white"/>
</svg>