<svg version="1.2" xmlns="http://www.w3.org/2000/svg" viewBox="0 0 24 24" width="24" height="24">
	<path  fill-rule="evenodd"  d="m2.7 16.6c-0.3-0.3-0.5-0.8-0.5-1.3v-6.6c0-0.5 0.2-1 0.5-1.3l4.7-4.7c0.4-0.3 0.8-0.5 1.3-0.5h6.6c0.5 0 1 0.2 1.3 0.5l4.7 4.7c0.3 0.3 0.5 0.8 0.5 1.3v6.6c0 0.5-0.2 1-0.5 1.3l-4.7 4.7c-0.3 0.3-0.8 0.5-1.3 0.5h-6.6c-0.5 0-0.9-0.2-1.3-0.5zm12.6 3.6q0.1 0 0.1-0.1l4.7-4.7q0.1 0 0.1-0.1v-6.6q0-0.1-0.1-0.2l-4.7-4.7q0 0-0.1 0h-6.6q-0.1 0-0.2 0l-4.7 4.7q0 0.1 0 0.2v6.6q0 0.1 0 0.1l4.7 4.7q0.1 0.1 0.2 0.1zm-3.4-10.7c-0.8 0-1.5-0.7-1.5-1.5 0-0.8 0.7-1.5 1.5-1.5 0.9 0 1.5 0.7 1.5 1.5 0 0.8-0.6 1.5-1.5 1.5zm-0.9 2.5c0-0.5 0.5-0.9 0.9-0.9 0.5 0 0.9 0.4 0.9 0.9v4c0 0.5-0.4 0.9-0.9 0.9-0.4 0-0.9-0.4-0.9-0.9z"/>
</svg>