<svg width="240" height="64" viewBox="0 0 240 64" fill="none" xmlns="http://www.w3.org/2000/svg">
<path fill-rule="evenodd" clip-rule="evenodd" d="M0 10.5476V64H230.849L240 54.8491V0H10.5476L0 10.5476ZM7 0H0V7L7 0Z" fill="url(#paint0_linear_325_3450)"/>
<path d="M39.9578 32C39.9578 30.6267 40.2645 29.4 40.8778 28.32C41.5045 27.2267 42.3511 26.38 43.4178 25.78C44.4978 25.1667 45.7045 24.86 47.0378 24.86C48.5978 24.86 49.9645 25.26 51.1378 26.06C52.3111 26.86 53.1311 27.9667 53.5978 29.38H50.3778C50.0578 28.7133 49.6045 28.2133 49.0178 27.88C48.4445 27.5467 47.7778 27.38 47.0178 27.38C46.2045 27.38 45.4778 27.5733 44.8378 27.96C44.2111 28.3333 43.7178 28.8667 43.3578 29.56C43.0111 30.2533 42.8378 31.0667 42.8378 32C42.8378 32.92 43.0111 33.7333 43.3578 34.44C43.7178 35.1333 44.2111 35.6733 44.8378 36.06C45.4778 36.4333 46.2045 36.62 47.0178 36.62C47.7778 36.62 48.4445 36.4533 49.0178 36.12C49.6045 35.7733 50.0578 35.2667 50.3778 34.6H53.5978C53.1311 36.0267 52.3111 37.14 51.1378 37.94C49.9778 38.7267 48.6111 39.12 47.0378 39.12C45.7045 39.12 44.4978 38.82 43.4178 38.22C42.3511 37.6067 41.5045 36.76 40.8778 35.68C40.2645 34.6 39.9578 33.3733 39.9578 32ZM60.9094 39.18C59.8427 39.18 58.8827 38.9467 58.0294 38.48C57.176 38 56.5027 37.3267 56.0094 36.46C55.5294 35.5933 55.2894 34.5933 55.2894 33.46C55.2894 32.3267 55.536 31.3267 56.0294 30.46C56.536 29.5933 57.2227 28.9267 58.0894 28.46C58.956 27.98 59.9227 27.74 60.9894 27.74C62.056 27.74 63.0227 27.98 63.8894 28.46C64.756 28.9267 65.436 29.5933 65.9294 30.46C66.436 31.3267 66.6894 32.3267 66.6894 33.46C66.6894 34.5933 66.4294 35.5933 65.9094 36.46C65.4027 37.3267 64.7094 38 63.8294 38.48C62.9627 38.9467 61.9894 39.18 60.9094 39.18ZM60.9094 36.74C61.416 36.74 61.8894 36.62 62.3294 36.38C62.7827 36.1267 63.1427 35.7533 63.4094 35.26C63.676 34.7667 63.8094 34.1667 63.8094 33.46C63.8094 32.4067 63.5294 31.6 62.9694 31.04C62.4227 30.4667 61.7494 30.18 60.9494 30.18C60.1494 30.18 59.476 30.4667 58.9294 31.04C58.396 31.6 58.1294 32.4067 58.1294 33.46C58.1294 34.5133 58.3894 35.3267 58.9094 35.9C59.4427 36.46 60.1094 36.74 60.9094 36.74ZM74.8833 27.76C76.2033 27.76 77.2699 28.18 78.0833 29.02C78.8966 29.8467 79.3033 31.0067 79.3033 32.5V39H76.5033V32.88C76.5033 32 76.2833 31.3267 75.8433 30.86C75.4033 30.38 74.8033 30.14 74.0433 30.14C73.2699 30.14 72.6566 30.38 72.2033 30.86C71.7633 31.3267 71.5433 32 71.5433 32.88V39H68.7433V27.92H71.5433V29.3C71.9166 28.82 72.3899 28.4467 72.9633 28.18C73.5499 27.9 74.1899 27.76 74.8833 27.76ZM88.1059 27.76C89.4259 27.76 90.4926 28.18 91.3059 29.02C92.1193 29.8467 92.5259 31.0067 92.5259 32.5V39H89.7259V32.88C89.7259 32 89.5059 31.3267 89.0659 30.86C88.6259 30.38 88.0259 30.14 87.2659 30.14C86.4926 30.14 85.8793 30.38 85.4259 30.86C84.9859 31.3267 84.7659 32 84.7659 32.88V39H81.9659V27.92H84.7659V29.3C85.1393 28.82 85.6126 28.4467 86.1859 28.18C86.7726 27.9 87.4126 27.76 88.1059 27.76ZM105.489 33.22C105.489 33.62 105.462 33.98 105.409 34.3H97.3086C97.3753 35.1 97.6553 35.7267 98.1486 36.18C98.6419 36.6333 99.2486 36.86 99.9686 36.86C101.009 36.86 101.749 36.4133 102.189 35.52H105.209C104.889 36.5867 104.275 37.4667 103.369 38.16C102.462 38.84 101.349 39.18 100.029 39.18C98.9619 39.18 98.0019 38.9467 97.1486 38.48C96.3086 38 95.6486 37.3267 95.1686 36.46C94.7019 35.5933 94.4686 34.5933 94.4686 33.46C94.4686 32.3133 94.7019 31.3067 95.1686 30.44C95.6353 29.5733 96.2886 28.9067 97.1286 28.44C97.9686 27.9733 98.9353 27.74 100.029 27.74C101.082 27.74 102.022 27.9667 102.849 28.42C103.689 28.8733 104.335 29.52 104.789 30.36C105.255 31.1867 105.489 32.14 105.489 33.22ZM102.589 32.42C102.575 31.7 102.315 31.1267 101.809 30.7C101.302 30.26 100.682 30.04 99.9486 30.04C99.2553 30.04 98.6686 30.2533 98.1886 30.68C97.7219 31.0933 97.4353 31.6733 97.3286 32.42H102.589ZM106.812 33.46C106.812 32.3133 107.046 31.3133 107.512 30.46C107.979 29.5933 108.626 28.9267 109.452 28.46C110.279 27.98 111.226 27.74 112.292 27.74C113.666 27.74 114.799 28.0867 115.692 28.78C116.599 29.46 117.206 30.42 117.512 31.66H114.492C114.332 31.18 114.059 30.8067 113.672 30.54C113.299 30.26 112.832 30.12 112.272 30.12C111.472 30.12 110.839 30.4133 110.372 31C109.906 31.5733 109.672 32.3933 109.672 33.46C109.672 34.5133 109.906 35.3333 110.372 35.92C110.839 36.4933 111.472 36.78 112.272 36.78C113.406 36.78 114.146 36.2733 114.492 35.26H117.512C117.206 36.46 116.599 37.4133 115.692 38.12C114.786 38.8267 113.652 39.18 112.292 39.18C111.226 39.18 110.279 38.9467 109.452 38.48C108.626 38 107.979 37.3333 107.512 36.48C107.046 35.6133 106.812 34.6067 106.812 33.46ZM122.824 30.22V35.58C122.824 35.9533 122.91 36.2267 123.084 36.4C123.27 36.56 123.577 36.64 124.004 36.64H125.304V39H123.544C121.184 39 120.004 37.8533 120.004 35.56V30.22H118.684V27.92H120.004V25.18H122.824V27.92H125.304V30.22H122.824ZM155.509 25.04L151.609 39H148.309L145.689 29.06L142.949 39L139.669 39.02L135.909 25.04H138.909L141.369 35.88L144.209 25.04H147.329L150.009 35.82L152.489 25.04H155.509ZM156.617 33.42C156.617 32.3 156.837 31.3067 157.277 30.44C157.73 29.5733 158.337 28.9067 159.097 28.44C159.87 27.9733 160.73 27.74 161.677 27.74C162.504 27.74 163.224 27.9067 163.837 28.24C164.464 28.5733 164.964 28.9933 165.337 29.5V27.92H168.157V39H165.337V37.38C164.977 37.9 164.477 38.3333 163.837 38.68C163.21 39.0133 162.484 39.18 161.657 39.18C160.724 39.18 159.87 38.94 159.097 38.46C158.337 37.98 157.73 37.3067 157.277 36.44C156.837 35.56 156.617 34.5533 156.617 33.42ZM165.337 33.46C165.337 32.78 165.204 32.2 164.937 31.72C164.67 31.2267 164.31 30.8533 163.857 30.6C163.404 30.3333 162.917 30.2 162.397 30.2C161.877 30.2 161.397 30.3267 160.957 30.58C160.517 30.8333 160.157 31.2067 159.877 31.7C159.61 32.18 159.477 32.7533 159.477 33.42C159.477 34.0867 159.61 34.6733 159.877 35.18C160.157 35.6733 160.517 36.0533 160.957 36.32C161.41 36.5867 161.89 36.72 162.397 36.72C162.917 36.72 163.404 36.5933 163.857 36.34C164.31 36.0733 164.67 35.7 164.937 35.22C165.204 34.7267 165.337 34.14 165.337 33.46ZM173.692 24.2V39H170.892V24.2H173.692ZM179.258 24.2V39H176.458V24.2H179.258ZM192.325 33.22C192.325 33.62 192.298 33.98 192.245 34.3H184.145C184.211 35.1 184.491 35.7267 184.985 36.18C185.478 36.6333 186.085 36.86 186.805 36.86C187.845 36.86 188.585 36.4133 189.025 35.52H192.045C191.725 36.5867 191.111 37.4667 190.205 38.16C189.298 38.84 188.185 39.18 186.865 39.18C185.798 39.18 184.838 38.9467 183.985 38.48C183.145 38 182.485 37.3267 182.005 36.46C181.538 35.5933 181.305 34.5933 181.305 33.46C181.305 32.3133 181.538 31.3067 182.005 30.44C182.471 29.5733 183.125 28.9067 183.965 28.44C184.805 27.9733 185.771 27.74 186.865 27.74C187.918 27.74 188.858 27.9667 189.685 28.42C190.525 28.8733 191.171 29.52 191.625 30.36C192.091 31.1867 192.325 32.14 192.325 33.22ZM189.425 32.42C189.411 31.7 189.151 31.1267 188.645 30.7C188.138 30.26 187.518 30.04 186.785 30.04C186.091 30.04 185.505 30.2533 185.025 30.68C184.558 31.0933 184.271 31.6733 184.165 32.42H189.425ZM197.628 30.22V35.58C197.628 35.9533 197.715 36.2267 197.888 36.4C198.075 36.56 198.382 36.64 198.808 36.64H200.108V39H198.348C195.988 39 194.808 37.8533 194.808 35.56V30.22H193.488V27.92H194.808V25.18H197.628V27.92H200.108V30.22H197.628Z" fill="black"/>
<defs>
<linearGradient id="paint0_linear_325_3450" x1="-1.25728e-07" y1="32.0001" x2="240.145" y2="28.7725" gradientUnits="userSpaceOnUse">
<stop stop-color="#0CFFF0"/>
<stop offset="1" stop-color="#0CFFA7"/>
</linearGradient>
</defs>
</svg>
