<svg width="384" height="534" viewBox="0 0 384 534" fill="none" xmlns="http://www.w3.org/2000/svg">
<mask id="path-1-inside-1_1707_12947" fill="white">
<path fill-rule="evenodd" clip-rule="evenodd" d="M307.2 0H0V534H149.82L157.8 526H226.2L234.18 534H384V11.0714H316.8L307.2 0Z"/>
</mask>
<path fill-rule="evenodd" clip-rule="evenodd" d="M307.2 0H0V534H149.82L157.8 526H226.2L234.18 534H384V11.0714H316.8L307.2 0Z" fill="#151716"/>
<path d="M0 0V-1H-1V0H0ZM307.2 0L307.956 -0.655116L307.656 -1H307.2V0ZM0 534H-1V535H0V534ZM149.82 534V535H150.235L150.528 534.706L149.82 534ZM157.8 526V525H157.385L157.092 525.294L157.8 526ZM226.2 526L226.908 525.294L226.615 525H226.2V526ZM234.18 534L233.472 534.706L233.765 535H234.18V534ZM384 534V535H385V534H384ZM384 11.0714H385V10.0714H384V11.0714ZM316.8 11.0714L316.044 11.7265L316.344 12.0714H316.8V11.0714ZM0 1H307.2V-1H0V1ZM1 534V0H-1V534H1ZM149.82 533H0V535H149.82V533ZM150.528 534.706L158.508 526.706L157.092 525.294L149.112 533.294L150.528 534.706ZM157.8 527H226.2V525H157.8V527ZM225.492 526.706L233.472 534.706L234.888 533.294L226.908 525.294L225.492 526.706ZM384 533H234.18V535H384V533ZM383 11.0714V534H385V11.0714H383ZM316.8 12.0714H384V10.0714H316.8V12.0714ZM306.444 0.655116L316.044 11.7265L317.556 10.4163L307.956 -0.655116L306.444 0.655116Z" fill="white" fill-opacity="0.1" mask="url(#path-1-inside-1_1707_12947)"/>
</svg>
