<svg xmlns="http://www.w3.org/2000/svg" width="280" height="484" viewBox="0 0 280 484" fill="none">
  <mask id="path-1-inside-1_2529_15822" fill="white">
    <path fill-rule="evenodd" clip-rule="evenodd" d="M224 0H0V484H109.243L115.062 478.167H164.937L170.757 484H280V7.65994H231L224 0Z"/>
  </mask>
  <path fill-rule="evenodd" clip-rule="evenodd" d="M224 0H0V484H109.243L115.062 478.167H164.937L170.757 484H280V7.65994H231L224 0Z" fill="#151716"/>
  <path d="M0 0V-1H-1V0H0ZM224 0L224.738 -0.674592L224.441 -1H224V0ZM0 484H-1V485H0V484ZM109.243 484V485H109.658L109.951 484.706L109.243 484ZM115.062 478.167V477.167H114.648L114.355 477.461L115.062 478.167ZM164.937 478.167L165.645 477.461L165.352 477.167H164.937V478.167ZM170.757 484L170.049 484.706L170.342 485H170.757V484ZM280 484V485H281V484H280ZM280 7.65994H281V6.65994H280V7.65994ZM231 7.65994L230.262 8.33454L230.559 8.65994H231V7.65994ZM0 1H224V-1H0V1ZM1 484V0H-1V484H1ZM109.243 483H0V485H109.243V483ZM109.951 484.706L115.77 478.874L114.355 477.461L108.536 483.294L109.951 484.706ZM115.062 479.167H164.937V477.167H115.062V479.167ZM164.23 478.874L170.049 484.706L171.464 483.294L165.645 477.461L164.23 478.874ZM280 483H170.757V485H280V483ZM279 7.65994V484H281V7.65994H279ZM231 8.65994H280V6.65994H231V8.65994ZM223.262 0.674592L230.262 8.33454L231.738 6.98535L224.738 -0.674592L223.262 0.674592Z" fill="white" fill-opacity="0.1" mask="url(#path-1-inside-1_2529_15822)"/>
</svg>