<svg width="48" height="48" viewBox="0 0 48 48" fill="none" xmlns="http://www.w3.org/2000/svg">
<mask id="path-1-inside-1_2605_20700" fill="white">
<path fill-rule="evenodd" clip-rule="evenodd" d="M48 48V7.05955L40.9405 0H0V40.2773L7.72266 48H48Z"/>
</mask>
<path fill-rule="evenodd" clip-rule="evenodd" d="M48 48V7.05955L40.9405 0H0V40.2773L7.72266 48H48Z" fill="white" fill-opacity="0.1"/>
<path d="M48 7.05955L48.7071 6.35244L49 6.64534V7.05955H48ZM48 48H49V49H48V48ZM40.9405 0V-1H41.3547L41.6476 -0.707107L40.9405 0ZM0 0H-1V-1H0V0ZM0 40.2773L-0.707108 40.9845L-1 40.6916V40.2773H0ZM7.72266 48V49H7.30844L7.01555 48.7071L7.72266 48ZM49 7.05955V48H47V7.05955H49ZM41.6476 -0.707107L48.7071 6.35244L47.2929 7.76666L40.2333 0.707107L41.6476 -0.707107ZM0 -1H40.9405V1H0V-1ZM-1 40.2773V0H1V40.2773H-1ZM7.01555 48.7071L-0.707108 40.9845L0.707108 39.5702L8.42976 47.2929L7.01555 48.7071ZM48 49H7.72266V47H48V49Z" fill="white" fill-opacity="0.1" mask="url(#path-1-inside-1_2605_20700)"/>
</svg>
