<svg xmlns="http://www.w3.org/2000/svg" width="48" height="48" viewBox="0 0 48 48" fill="none">
<mask id="path-1-inside-1_2605_20692" fill="white">
<path fill-rule="evenodd" clip-rule="evenodd" d="M0 48V7.05955L7.05955 0H48V40.2773L40.2773 48H0Z"/>
</mask>
<path fill-rule="evenodd" clip-rule="evenodd" d="M0 48V7.05955L7.05955 0H48V40.2773L40.2773 48H0Z" fill="white" fill-opacity="0.1"/>
<path d="M0 7.05955L-0.707107 6.35244L-1 6.64534V7.05955H0ZM0 48H-1V49H0V48ZM7.05955 0V-1H6.64533L6.35244 -0.707107L7.05955 0ZM48 0H49V-1H48V0ZM48 40.2773L48.7071 40.9845L49 40.6916V40.2773H48ZM40.2773 48V49H40.6916L40.9845 48.7071L40.2773 48ZM-1 7.05955V48H1V7.05955H-1ZM6.35244 -0.707107L-0.707107 6.35244L0.707107 7.76666L7.76665 0.707107L6.35244 -0.707107ZM48 -1H7.05955V1H48V-1ZM49 40.2773V0H47V40.2773H49ZM40.9845 48.7071L48.7071 40.9845L47.2929 39.5702L39.5702 47.2929L40.9845 48.7071ZM0 49H40.2773V47H0V49Z" fill="white" fill-opacity="0.1" mask="url(#path-1-inside-1_2605_20692)"/>
</svg>