<svg width="1000" height="480" viewBox="0 0 1000 480" fill="none" xmlns="http://www.w3.org/2000/svg">
  <g filter="url(#filter0_b_15900_4970)">
    <mask id="path-1-inside-1_15900_4970" fill="white">
      <path fill-rule="evenodd" clip-rule="evenodd" d="M424 24C437.255 24 448 13.2548 448 0H980C991.046 0 1000 8.95431 1000 20V460C1000 471.046 991.046 480 980 480H448C448 466.745 437.255 456 424 456C410.745 456 400 466.745 400 480H20C8.95429 480 0 471.046 0 460V20C0 8.95432 8.9543 0 20 0H400C400 13.2548 410.745 24 424 24ZM423 28V36H425V28H423ZM423 44V52H425V44H423ZM423 60V68H425V60H423ZM423 76V84H425V76H423ZM423 92V100H425V92H423ZM423 108V116H425V108H423ZM423 124V132H425V124H423ZM423 140V148H425V140H423ZM423 156V164H425V156H423ZM423 172V180H425V172H423ZM423 188V196H425V188H423ZM423 204V212H425V204H423ZM423 220V228H425V220H423ZM423 236V244H425V236H423ZM423 252V260H425V252H423ZM423 268V276H425V268H423ZM423 284V292H425V284H423ZM423 300V308H425V300H423ZM423 316V324H425V316H423ZM423 332V340H425V332H423ZM423 348V356H425V348H423ZM423 364V372H425V364H423ZM423 380V388H425V380H423ZM423 396V404H425V396H423ZM423 412V420H425V412H423ZM423 428V436H425V428H423ZM423 444V452H425V444H423Z"/>
    </mask>
    <path fill-rule="evenodd" clip-rule="evenodd" d="M424 24C437.255 24 448 13.2548 448 0H980C991.046 0 1000 8.95431 1000 20V460C1000 471.046 991.046 480 980 480H448C448 466.745 437.255 456 424 456C410.745 456 400 466.745 400 480H20C8.95429 480 0 471.046 0 460V20C0 8.95432 8.9543 0 20 0H400C400 13.2548 410.745 24 424 24ZM423 28V36H425V28H423ZM423 44V52H425V44H423ZM423 60V68H425V60H423ZM423 76V84H425V76H423ZM423 92V100H425V92H423ZM423 108V116H425V108H423ZM423 124V132H425V124H423ZM423 140V148H425V140H423ZM423 156V164H425V156H423ZM423 172V180H425V172H423ZM423 188V196H425V188H423ZM423 204V212H425V204H423ZM423 220V228H425V220H423ZM423 236V244H425V236H423ZM423 252V260H425V252H423ZM423 268V276H425V268H423ZM423 284V292H425V284H423ZM423 300V308H425V300H423ZM423 316V324H425V316H423ZM423 332V340H425V332H423ZM423 348V356H425V348H423ZM423 364V372H425V364H423ZM423 380V388H425V380H423ZM423 396V404H425V396H423ZM423 412V420H425V412H423ZM423 428V436H425V428H423ZM423 444V452H425V444H423Z" fill="#3FECCC" fill-opacity="0.4"/>
    <path d="M448 0V-1H447V0H448ZM448 480H447V481H448V480ZM400 480V481H401V480H400ZM400 0H401V-1H400V0ZM423 36H422V37H423V36ZM423 28V27H422V28H423ZM425 36V37H426V36H425ZM425 28H426V27H425V28ZM423 52H422V53H423V52ZM423 44V43H422V44H423ZM425 52V53H426V52H425ZM425 44H426V43H425V44ZM423 68H422V69H423V68ZM423 60V59H422V60H423ZM425 68V69H426V68H425ZM425 60H426V59H425V60ZM423 84H422V85H423V84ZM423 76V75H422V76H423ZM425 84V85H426V84H425ZM425 76H426V75H425V76ZM423 100H422V101H423V100ZM423 92V91H422V92H423ZM425 100V101H426V100H425ZM425 92H426V91H425V92ZM423 116H422V117H423V116ZM423 108V107H422V108H423ZM425 116V117H426V116H425ZM425 108H426V107H425V108ZM423 132H422V133H423V132ZM423 124V123H422V124H423ZM425 132V133H426V132H425ZM425 124H426V123H425V124ZM423 148H422V149H423V148ZM423 140V139H422V140H423ZM425 148V149H426V148H425ZM425 140H426V139H425V140ZM423 164H422V165H423V164ZM423 156V155H422V156H423ZM425 164V165H426V164H425ZM425 156H426V155H425V156ZM423 180H422V181H423V180ZM423 172V171H422V172H423ZM425 180V181H426V180H425ZM425 172H426V171H425V172ZM423 196H422V197H423V196ZM423 188V187H422V188H423ZM425 196V197H426V196H425ZM425 188H426V187H425V188ZM423 212H422V213H423V212ZM423 204V203H422V204H423ZM425 212V213H426V212H425ZM425 204H426V203H425V204ZM423 228H422V229H423V228ZM423 220V219H422V220H423ZM425 228V229H426V228H425ZM425 220H426V219H425V220ZM423 244H422V245H423V244ZM423 236V235H422V236H423ZM425 244V245H426V244H425ZM425 236H426V235H425V236ZM423 260H422V261H423V260ZM423 252V251H422V252H423ZM425 260V261H426V260H425ZM425 252H426V251H425V252ZM423 276H422V277H423V276ZM423 268V267H422V268H423ZM425 276V277H426V276H425ZM425 268H426V267H425V268ZM423 292H422V293H423V292ZM423 284V283H422V284H423ZM425 292V293H426V292H425ZM425 284H426V283H425V284ZM423 308H422V309H423V308ZM423 300V299H422V300H423ZM425 308V309H426V308H425ZM425 300H426V299H425V300ZM423 324H422V325H423V324ZM423 316V315H422V316H423ZM425 324V325H426V324H425ZM425 316H426V315H425V316ZM423 340H422V341H423V340ZM423 332V331H422V332H423ZM425 340V341H426V340H425ZM425 332H426V331H425V332ZM423 356H422V357H423V356ZM423 348V347H422V348H423ZM425 356V357H426V356H425ZM425 348H426V347H425V348ZM423 372H422V373H423V372ZM423 364V363H422V364H423ZM425 372V373H426V372H425ZM425 364H426V363H425V364ZM423 388H422V389H423V388ZM423 380V379H422V380H423ZM425 388V389H426V388H425ZM425 380H426V379H425V380ZM423 404H422V405H423V404ZM423 396V395H422V396H423ZM425 404V405H426V404H425ZM425 396H426V395H425V396ZM423 420H422V421H423V420ZM423 412V411H422V412H423ZM425 420V421H426V420H425ZM425 412H426V411H425V412ZM423 436H422V437H423V436ZM423 428V427H422V428H423ZM425 436V437H426V436H425ZM425 428H426V427H425V428ZM423 452H422V453H423V452ZM423 444V443H422V444H423ZM425 452V453H426V452H425ZM425 444H426V443H425V444ZM447 0C447 12.7025 436.703 23 424 23V25C437.807 25 449 13.8071 449 0H447ZM980 -1H448V1H980V-1ZM1001 20C1001 8.40202 991.598 -1 980 -1V1C990.493 1 999 9.50659 999 20H1001ZM1001 460V20H999V460H1001ZM980 481C991.598 481 1001 471.598 1001 460H999C999 470.493 990.493 479 980 479V481ZM448 481H980V479H448V481ZM424 457C436.703 457 447 467.297 447 480H449C449 466.193 437.807 455 424 455V457ZM401 480C401 467.297 411.297 457 424 457V455C410.193 455 399 466.193 399 480H401ZM20 481H400V479H20V481ZM-1 460C-1 471.598 8.402 481 20 481V479C9.50657 479 1 470.493 1 460H-1ZM-1 20V460H1V20H-1ZM20 -1C8.40202 -1 -1 8.40203 -1 20H1C1 9.5066 9.50659 1 20 1V-1ZM400 -1H20V1H400V-1ZM424 23C411.297 23 401 12.7025 401 0H399C399 13.8071 410.193 25 424 25V23ZM424 36V28H422V36H424ZM425 35H423V37H425V35ZM424 28V36H426V28H424ZM423 29H425V27H423V29ZM424 52V44H422V52H424ZM425 51H423V53H425V51ZM424 44V52H426V44H424ZM423 45H425V43H423V45ZM424 68V60H422V68H424ZM425 67H423V69H425V67ZM424 60V68H426V60H424ZM423 61H425V59H423V61ZM424 84V76H422V84H424ZM425 83H423V85H425V83ZM424 76V84H426V76H424ZM423 77H425V75H423V77ZM424 100V92H422V100H424ZM425 99H423V101H425V99ZM424 92V100H426V92H424ZM423 93H425V91H423V93ZM424 116V108H422V116H424ZM425 115H423V117H425V115ZM424 108V116H426V108H424ZM423 109H425V107H423V109ZM424 132V124H422V132H424ZM425 131H423V133H425V131ZM424 124V132H426V124H424ZM423 125H425V123H423V125ZM424 148V140H422V148H424ZM425 147H423V149H425V147ZM424 140V148H426V140H424ZM423 141H425V139H423V141ZM424 164V156H422V164H424ZM425 163H423V165H425V163ZM424 156V164H426V156H424ZM423 157H425V155H423V157ZM424 180V172H422V180H424ZM425 179H423V181H425V179ZM424 172V180H426V172H424ZM423 173H425V171H423V173ZM424 196V188H422V196H424ZM425 195H423V197H425V195ZM424 188V196H426V188H424ZM423 189H425V187H423V189ZM424 212V204H422V212H424ZM425 211H423V213H425V211ZM424 204V212H426V204H424ZM423 205H425V203H423V205ZM424 228V220H422V228H424ZM425 227H423V229H425V227ZM424 220V228H426V220H424ZM423 221H425V219H423V221ZM424 244V236H422V244H424ZM425 243H423V245H425V243ZM424 236V244H426V236H424ZM423 237H425V235H423V237ZM424 260V252H422V260H424ZM425 259H423V261H425V259ZM424 252V260H426V252H424ZM423 253H425V251H423V253ZM424 276V268H422V276H424ZM425 275H423V277H425V275ZM424 268V276H426V268H424ZM423 269H425V267H423V269ZM424 292V284H422V292H424ZM425 291H423V293H425V291ZM424 284V292H426V284H424ZM423 285H425V283H423V285ZM424 308V300H422V308H424ZM425 307H423V309H425V307ZM424 300V308H426V300H424ZM423 301H425V299H423V301ZM424 324V316H422V324H424ZM425 323H423V325H425V323ZM424 316V324H426V316H424ZM423 317H425V315H423V317ZM424 340V332H422V340H424ZM425 339H423V341H425V339ZM424 332V340H426V332H424ZM423 333H425V331H423V333ZM424 356V348H422V356H424ZM425 355H423V357H425V355ZM424 348V356H426V348H424ZM423 349H425V347H423V349ZM424 372V364H422V372H424ZM425 371H423V373H425V371ZM424 364V372H426V364H424ZM423 365H425V363H423V365ZM424 388V380H422V388H424ZM425 387H423V389H425V387ZM424 380V388H426V380H424ZM423 381H425V379H423V381ZM424 404V396H422V404H424ZM425 403H423V405H425V403ZM424 396V404H426V396H424ZM423 397H425V395H423V397ZM424 420V412H422V420H424ZM425 419H423V421H425V419ZM424 412V420H426V412H424ZM423 413H425V411H423V413ZM424 436V428H422V436H424ZM425 435H423V437H425V435ZM424 428V436H426V428H424ZM423 429H425V427H423V429ZM424 452V444H422V452H424ZM425 451H423V453H425V451ZM424 444V452H426V444H424ZM423 445H425V443H423V445Z" fill="white" fill-opacity="0.1" mask="url(#path-1-inside-1_15900_4970)"/>
  </g>
  <defs>
    <filter id="filter0_b_15900_4970" x="-60" y="-60" width="1120" height="600" filterUnits="userSpaceOnUse" color-interpolation-filters="sRGB">
      <feFlood flood-opacity="0" result="BackgroundImageFix"/>
      <feGaussianBlur in="BackgroundImageFix" stdDeviation="30"/>
      <feComposite in2="SourceAlpha" operator="in" result="effect1_backgroundBlur_15900_4970"/>
      <feBlend mode="normal" in="SourceGraphic" in2="effect1_backgroundBlur_15900_4970" result="shape"/>
    </filter>
  </defs>
</svg>