<svg width="24" height="24" viewBox="0 0 24 24" fill="none" xmlns="http://www.w3.org/2000/svg">
<g id="Frame 36235478">
<path id="Union" fill-rule="evenodd" clip-rule="evenodd" d="M8.40078 2.76002C8.40078 2.5612 8.56196 2.40002 8.76078 2.40002H10.4408C10.6396 2.40002 10.8008 2.5612 10.8008 2.76002V21.24C10.8008 21.4388 10.6396 21.6 10.4408 21.6H8.76078C8.56196 21.6 8.40078 21.4388 8.40078 21.24V16.6L3.80078 12L8.40078 7.40005V2.76002ZM14.4008 2.76002C14.4008 2.5612 14.562 2.40002 14.7608 2.40002H16.4408C16.6396 2.40002 16.8008 2.5612 16.8008 2.76002V21.24C16.8008 21.4388 16.6396 21.6 16.4408 21.6H14.7608C14.562 21.6 14.4008 21.4388 14.4008 21.24V2.76002Z" fill="#D9D9D9"/>
</g>
</svg>
