<svg width="256" height="256" viewBox="0 0 256 256" fill="none" xmlns="http://www.w3.org/2000/svg">
  <g filter="url(#filter0_di_16072_9252)">
    <mask id="path-1-inside-1_16072_9252" fill="white">
      <path fill-rule="evenodd" clip-rule="evenodd" d="M240.199 122.91L188.516 33.3929C177.924 39.5067 164.38 35.8775 158.264 25.2859L24.015 102.803L24.0184 102.808C30.1348 113.402 26.5054 126.949 15.912 133.066L15.8906 133.078L67.5758 222.6C67.5843 222.595 67.5928 222.59 67.6014 222.585C78.1909 216.47 91.731 220.095 97.8505 230.68L232.102 153.162L232.102 153.161C225.988 142.571 229.613 129.029 240.199 122.91Z"/>
    </mask>
    <path fill-rule="evenodd" clip-rule="evenodd" d="M240.199 122.91L188.516 33.3929C177.924 39.5067 164.38 35.8775 158.264 25.2859L24.015 102.803L24.0184 102.808C30.1348 113.402 26.5054 126.949 15.912 133.066L15.8906 133.078L67.5758 222.6C67.5843 222.595 67.5928 222.59 67.6014 222.585C78.1909 216.47 91.731 220.095 97.8505 230.68L232.102 153.162L232.102 153.161C225.988 142.571 229.613 129.029 240.199 122.91Z" fill="url(#paint0_linear_16072_9252)"/>
    <path fill-rule="evenodd" clip-rule="evenodd" d="M240.199 122.91L188.516 33.3929C177.924 39.5067 164.38 35.8775 158.264 25.2859L24.015 102.803L24.0184 102.808C30.1348 113.402 26.5054 126.949 15.912 133.066L15.8906 133.078L67.5758 222.6C67.5843 222.595 67.5928 222.59 67.6014 222.585C78.1909 216.47 91.731 220.095 97.8505 230.68L232.102 153.162L232.102 153.161C225.988 142.571 229.613 129.029 240.199 122.91Z" fill="black" fill-opacity="0.1"/>
    <path d="M188.516 33.3929L194.907 29.7026L191.218 23.3124L184.827 27.001L188.516 33.3929ZM240.199 122.91L243.892 129.299L250.278 125.608L246.59 119.22L240.199 122.91ZM158.264 25.2859L164.655 21.5951L160.965 15.2046L154.574 18.8946L158.264 25.2859ZM24.015 102.803L20.325 96.4114L13.9339 100.102L17.6239 106.493L24.015 102.803ZM15.912 133.066L19.5986 139.459L19.602 139.457L15.912 133.066ZM15.8906 133.078L12.204 126.685L5.80746 130.374L9.49945 136.768L15.8906 133.078ZM67.5758 222.6L61.1847 226.29L64.8804 232.691L71.2757 228.985L67.5758 222.6ZM97.8505 230.68L91.4616 234.374L95.1532 240.759L101.541 237.071L97.8505 230.68ZM232.102 153.162L235.792 159.553L242.183 155.863L238.493 149.472L232.102 153.162ZM232.102 153.161L238.493 149.471L232.102 153.161ZM182.125 37.0831L233.808 126.6L246.59 119.22L194.907 29.7026L182.125 37.0831ZM151.873 28.9767C160.027 43.0973 178.083 47.9358 192.205 39.7847L184.827 27.001C177.764 31.0776 168.733 28.6578 164.655 21.5951L151.873 28.9767ZM27.705 109.194L161.954 31.6771L154.574 18.8946L20.325 96.4114L27.705 109.194ZM30.4095 99.1182L30.4061 99.1124L17.6239 106.493L17.6273 106.499L30.4095 99.1182ZM19.602 139.457C33.7253 131.302 38.5637 113.242 30.4095 99.1182L17.6273 106.499C21.7058 113.563 19.2856 122.596 12.222 126.675L19.602 139.457ZM19.5771 139.471L19.5986 139.459L12.2255 126.673L12.204 126.685L19.5771 139.471ZM73.9669 218.909L22.2817 129.388L9.49945 136.768L61.1847 226.29L73.9669 218.909ZM71.2757 228.985C71.2809 228.982 71.2862 228.979 71.2914 228.976L63.9114 216.194C63.8995 216.2 63.8877 216.207 63.8759 216.214L71.2757 228.985ZM71.2914 228.976C78.3524 224.899 87.381 227.316 91.4616 234.374L104.239 226.986C96.081 212.874 78.0295 208.042 63.9114 216.194L71.2914 228.976ZM228.412 146.771L94.1605 224.289L101.541 237.071L235.792 159.553L228.412 146.771ZM225.711 156.852L225.711 156.852L238.493 149.472L238.493 149.471L225.711 156.852ZM236.505 116.52C222.392 124.679 217.559 142.733 225.711 156.852L238.493 149.471C234.416 142.409 236.833 133.38 243.892 129.299L236.505 116.52Z" fill="url(#paint1_linear_16072_9252)" mask="url(#path-1-inside-1_16072_9252)"/>
  </g>
  <g filter="url(#filter1_d_16072_9252)">
    <path fill-rule="evenodd" clip-rule="evenodd" d="M152.829 86.4563L104.639 86.4563L80.5439 128.19L104.639 169.924L152.829 169.924L176.925 128.19L152.829 86.4563ZM147.459 90.6605L128.474 123.544L109.489 90.6605L147.459 90.6605ZM114.62 107.957L88.3106 123.147L105.85 92.7667L114.62 107.957ZM104.715 161.647L86.0446 129.309L114.444 112.913L104.715 161.647ZM171.114 126.534L131.602 126.534L151.358 92.3163L171.114 126.534ZM137.098 146.889L108.672 163.301L118.41 114.52L137.098 146.889ZM151.613 163.622L132.628 130.739L170.599 130.739L151.613 163.622ZM147.97 165.72L112.89 165.72L139.2 150.53L147.97 165.72Z" fill="url(#paint2_linear_16072_9252)"/>
    <path fill-rule="evenodd" clip-rule="evenodd" d="M152.829 86.4563L104.639 86.4563L80.5439 128.19L104.639 169.924L152.829 169.924L176.925 128.19L152.829 86.4563ZM147.459 90.6605L128.474 123.544L109.489 90.6605L147.459 90.6605ZM114.62 107.957L88.3106 123.147L105.85 92.7667L114.62 107.957ZM104.715 161.647L86.0446 129.309L114.444 112.913L104.715 161.647ZM171.114 126.534L131.602 126.534L151.358 92.3163L171.114 126.534ZM137.098 146.889L108.672 163.301L118.41 114.52L137.098 146.889ZM151.613 163.622L132.628 130.739L170.599 130.739L151.613 163.622ZM147.97 165.72L112.89 165.72L139.2 150.53L147.97 165.72Z" fill="white"/>
  </g>
  <defs>
    <filter id="filter0_di_16072_9252" x="15.8906" y="25.2859" width="229.998" height="213.924" filterUnits="userSpaceOnUse" color-interpolation-filters="sRGB">
      <feFlood flood-opacity="0" result="BackgroundImageFix"/>
      <feColorMatrix in="SourceAlpha" type="matrix" values="0 0 0 0 0 0 0 0 0 0 0 0 0 0 0 0 0 0 127 0" result="hardAlpha"/>
      <feOffset dx="4.27" dy="7.11"/>
      <feComposite in2="hardAlpha" operator="out"/>
      <feColorMatrix type="matrix" values="0 0 0 0 0.0396007 0 0 0 0 0.32503 0 0 0 0 0.273653 0 0 0 1 0"/>
      <feBlend mode="normal" in2="BackgroundImageFix" result="effect1_dropShadow_16072_9252"/>
      <feBlend mode="normal" in="SourceGraphic" in2="effect1_dropShadow_16072_9252" result="shape"/>
      <feColorMatrix in="SourceAlpha" type="matrix" values="0 0 0 0 0 0 0 0 0 0 0 0 0 0 0 0 0 0 127 0" result="hardAlpha"/>
      <feOffset dx="5.69" dy="8.53"/>
      <feGaussianBlur stdDeviation="10.665"/>
      <feComposite in2="hardAlpha" operator="arithmetic" k2="-1" k3="1"/>
      <feColorMatrix type="matrix" values="0 0 0 0 0.0303328 0 0 0 0 0.304511 0 0 0 0 0.238708 0 0 0 1 0"/>
      <feBlend mode="normal" in2="shape" result="effect2_innerShadow_16072_9252"/>
    </filter>
    <filter id="filter1_d_16072_9252" x="76.5439" y="84.4563" width="104.381" height="91.4681" filterUnits="userSpaceOnUse" color-interpolation-filters="sRGB">
      <feFlood flood-opacity="0" result="BackgroundImageFix"/>
      <feColorMatrix in="SourceAlpha" type="matrix" values="0 0 0 0 0 0 0 0 0 0 0 0 0 0 0 0 0 0 127 0" result="hardAlpha"/>
      <feOffset dy="2"/>
      <feGaussianBlur stdDeviation="2"/>
      <feComposite in2="hardAlpha" operator="out"/>
      <feColorMatrix type="matrix" values="0 0 0 0 0.351275 0 0 0 0 0.366769 0 0 0 0 0.738637 0 0 0 0.3 0"/>
      <feBlend mode="normal" in2="BackgroundImageFix" result="effect1_dropShadow_16072_9252"/>
      <feBlend mode="normal" in="SourceGraphic" in2="effect1_dropShadow_16072_9252" result="shape"/>
    </filter>
    <linearGradient id="paint0_linear_16072_9252" x1="71.2083" y1="75.5528" x2="172.487" y2="249.769" gradientUnits="userSpaceOnUse">
      <stop stop-color="#52E7DE"/>
      <stop offset="1" stop-color="#15E69A"/>
    </linearGradient>
    <linearGradient id="paint1_linear_16072_9252" x1="71.2083" y1="75.5528" x2="172.487" y2="249.769" gradientUnits="userSpaceOnUse">
      <stop stop-color="#BFFFFB"/>
      <stop offset="1" stop-color="#00FAA0"/>
    </linearGradient>
    <linearGradient id="paint2_linear_16072_9252" x1="105.12" y1="170.758" x2="107.734" y2="86.2727" gradientUnits="userSpaceOnUse">
      <stop stop-color="#0CFFF0"/>
      <stop offset="1" stop-color="#0CFFA7"/>
    </linearGradient>
  </defs>
</svg>