<svg width="24" height="24" viewBox="0 0 24 24" fill="none" xmlns="http://www.w3.org/2000/svg">
  <path fill-rule="evenodd" clip-rule="evenodd" d="M13.5641 5.68714C13.0915 5.68714 12.8827 5.09196 13.2518 4.79671L16.2388 2.40706C17.4448 1.44228 19.2313 2.3009 19.2313 3.8453C19.2313 4.86252 18.4067 5.68714 17.3894 5.68714H13.5641ZM1.5 8.39642C1.5 7.29185 2.39543 6.39642 3.5 6.39642H11.4295V10.6519H3.5C2.39543 10.6519 1.5 9.75651 1.5 8.65194V8.39642ZM11.4295 12.0705H2.91846V20C2.91846 21.1046 3.81388 22 4.91845 22H11.4295V12.0705ZM21.3591 12.0705H12.848V22H19.3591C20.4636 22 21.3591 21.1046 21.3591 20V12.0705ZM20.7776 6.39642H12.848V10.6519H20.7776C21.8821 10.6519 22.7776 9.75651 22.7776 8.65194V8.39642C22.7776 7.29185 21.8821 6.39642 20.7776 6.39642ZM11.0257 4.79671C11.3948 5.09196 11.186 5.68714 10.7133 5.68714H6.88804C5.87082 5.68714 5.0462 4.86252 5.0462 3.8453C5.0462 2.3009 6.83266 1.44228 8.03863 2.40706L11.0257 4.79671Z" fill="url(#paint0_linear_16101_9717)"/>
  <defs>
    <linearGradient id="paint0_linear_16101_9717" x1="1.5" y1="14.3077" x2="30.5371" y2="14.185" gradientUnits="userSpaceOnUse">
      <stop stop-color="#0CFFF0"/>
      <stop offset="1" stop-color="#0CFFA7"/>
    </linearGradient>
  </defs>
</svg>