<svg xmlns="http://www.w3.org/2000/svg" width="141" height="51" viewBox="0 0 141 51" fill="none">
  <mask id="path-1-inside-1_14396_7497" fill="white">
    <path fill-rule="evenodd" clip-rule="evenodd" d="M141 8.00001C141 3.58173 137.418 6.00674e-06 133 5.81361e-06L8 3.49691e-07C3.58173 1.56562e-07 -1.56562e-07 3.58172 -3.49691e-07 8L-1.57361e-06 36C-1.76674e-06 40.4183 3.58172 44 8 44L103.675 44L109.016 50.3928L114.357 44L133 44C137.418 44 141 40.4183 141 36L141 8.00001Z"/>
  </mask>
  <path fill-rule="evenodd" clip-rule="evenodd" d="M141 8.00001C141 3.58173 137.418 6.00674e-06 133 5.81361e-06L8 3.49691e-07C3.58173 1.56562e-07 -1.56562e-07 3.58172 -3.49691e-07 8L-1.57361e-06 36C-1.76674e-06 40.4183 3.58172 44 8 44L103.675 44L109.016 50.3928L114.357 44L133 44C137.418 44 141 40.4183 141 36L141 8.00001Z" fill="#111111"/>
  <path d="M103.675 44L104.442 43.3589L104.142 43L103.675 43L103.675 44ZM109.016 50.3928L108.248 51.0339L109.016 51.9525L109.783 51.0339L109.016 50.3928ZM114.357 44L114.357 43L113.889 43L113.589 43.3589L114.357 44ZM133 44L133 43L133 44ZM133 1.00001C136.866 1.00001 140 4.13401 140 8.00001L142 8.00001C142 3.02944 137.971 -0.999994 133 -0.999994L133 1.00001ZM8 1L133 1.00001L133 -0.999994L8 -1L8 1ZM1 8C1 4.13401 4.134 1 8 1L8 -1C3.02943 -1 -1 3.02944 -1 8L1 8ZM0.999998 36L1 8L-1 8L-1 36L0.999998 36ZM8 43C4.134 43 0.999998 39.866 0.999998 36L-1 36C-1 40.9706 3.02943 45 8 45L8 43ZM103.675 43L8 43L8 45L103.675 45L103.675 43ZM109.783 49.7516L104.442 43.3589L102.907 44.6412L108.248 51.0339L109.783 49.7516ZM113.589 43.3589L108.248 49.7516L109.783 51.0339L115.124 44.6412L113.589 43.3589ZM133 43L114.357 43L114.357 45L133 45L133 43ZM140 36C140 39.866 136.866 43 133 43L133 45C137.971 45 142 40.9706 142 36L140 36ZM140 8.00001L140 36L142 36L142 8.00001L140 8.00001Z" fill="white" fill-opacity="0.1" mask="url(#path-1-inside-1_14396_7497)"/>
</svg>