<svg width="127" height="54" viewBox="0 0 127 54" fill="none" xmlns="http://www.w3.org/2000/svg">
<mask id="path-1-inside-1_480_5616" fill="white">
<path fill-rule="evenodd" clip-rule="evenodd" d="M0 54V7.94089L7.94089 0H127V45.3135L118.313 54H0Z"/>
</mask>
<path d="M0 7.94089L-0.707107 7.23379L-1 7.52668V7.94089H0ZM0 54H-1V55H0V54ZM7.94089 0V-1H7.52668L7.23379 -0.707107L7.94089 0ZM127 0H128V-1H127V0ZM127 45.3135L127.707 46.0206L128 45.7277V45.3135H127ZM118.313 54V55H118.728L119.021 54.7071L118.313 54ZM-1 7.94089V54H1V7.94089H-1ZM7.23379 -0.707107L-0.707107 7.23379L0.707107 8.648L8.648 0.707107L7.23379 -0.707107ZM127 -1H7.94089V1H127V-1ZM128 45.3135V0H126V45.3135H128ZM119.021 54.7071L127.707 46.0206L126.293 44.6064L117.606 53.2929L119.021 54.7071ZM0 55H118.313V53H0V55Z" fill="white" mask="url(#path-1-inside-1_480_5616)"/>
<g filter="url(#filter0_d_480_5616)">
<path fill-rule="evenodd" clip-rule="evenodd" d="M32.5028 24.2885H22.892L25.5159 21.1924H32.5028C36.0911 21.1924 39 23.9648 39 27.3847C39 30.8046 36.0911 33.577 32.5028 33.577H16L23.7466 27.3374V30.4808H32.5028C34.297 30.4808 35.7514 29.0946 35.7514 27.3847C35.7514 25.6747 34.297 24.2885 32.5028 24.2885Z" fill="url(#paint0_diamond_480_5616)" shape-rendering="crispEdges"/>
</g>
<path d="M56.046 26.574C56.718 26.694 57.288 27.048 57.756 27.636C58.224 28.224 58.458 28.89 58.458 29.634C58.458 30.27 58.29 30.846 57.954 31.362C57.63 31.866 57.156 32.268 56.532 32.568C55.908 32.856 55.182 33 54.354 33H49.35V20.49H54.12C54.972 20.49 55.704 20.634 56.316 20.922C56.928 21.21 57.39 21.6 57.702 22.092C58.014 22.572 58.17 23.112 58.17 23.712C58.17 24.432 57.978 25.032 57.594 25.512C57.21 25.992 56.694 26.346 56.046 26.574ZM51.402 25.746H53.94C54.612 25.746 55.134 25.596 55.506 25.296C55.89 24.984 56.082 24.54 56.082 23.964C56.082 23.4 55.89 22.962 55.506 22.65C55.134 22.326 54.612 22.164 53.94 22.164H51.402V25.746ZM54.174 31.326C54.87 31.326 55.416 31.158 55.812 30.822C56.208 30.486 56.406 30.018 56.406 29.418C56.406 28.806 56.196 28.32 55.776 27.96C55.356 27.6 54.798 27.42 54.102 27.42H51.402V31.326H54.174ZM60.0039 27.996C60.0039 27 60.2079 26.118 60.6159 25.35C61.0359 24.582 61.5999 23.988 62.3079 23.568C63.0279 23.136 63.8199 22.92 64.6839 22.92C65.4639 22.92 66.1419 23.076 66.7179 23.388C67.3059 23.688 67.7739 24.066 68.1219 24.522V23.082H70.1919V33H68.1219V31.524C67.7739 31.992 67.2999 32.382 66.6999 32.694C66.0999 33.006 65.4159 33.162 64.6479 33.162C63.7959 33.162 63.0159 32.946 62.3079 32.514C61.5999 32.07 61.0359 31.458 60.6159 30.678C60.2079 29.886 60.0039 28.992 60.0039 27.996ZM68.1219 28.032C68.1219 27.348 67.9779 26.754 67.6899 26.25C67.4139 25.746 67.0479 25.362 66.5919 25.098C66.1359 24.834 65.6439 24.702 65.1159 24.702C64.5879 24.702 64.0959 24.834 63.6399 25.098C63.1839 25.35 62.8119 25.728 62.5239 26.232C62.2479 26.724 62.1099 27.312 62.1099 27.996C62.1099 28.68 62.2479 29.28 62.5239 29.796C62.8119 30.312 63.1839 30.708 63.6399 30.984C64.1079 31.248 64.5999 31.38 65.1159 31.38C65.6439 31.38 66.1359 31.248 66.5919 30.984C67.0479 30.72 67.4139 30.336 67.6899 29.832C67.9779 29.316 68.1219 28.716 68.1219 28.032ZM72.2031 28.032C72.2031 27.012 72.4071 26.118 72.8151 25.35C73.2351 24.57 73.8111 23.97 74.5431 23.55C75.2751 23.13 76.1151 22.92 77.0631 22.92C78.2631 22.92 79.2531 23.208 80.0331 23.784C80.8251 24.348 81.3591 25.158 81.6351 26.214H79.4211C79.2411 25.722 78.9531 25.338 78.5571 25.062C78.1611 24.786 77.6631 24.648 77.0631 24.648C76.2231 24.648 75.5511 24.948 75.0471 25.548C74.5551 26.136 74.3091 26.964 74.3091 28.032C74.3091 29.1 74.5551 29.934 75.0471 30.534C75.5511 31.134 76.2231 31.434 77.0631 31.434C78.2511 31.434 79.0371 30.912 79.4211 29.868H81.6351C81.3471 30.876 80.8071 31.68 80.0151 32.28C79.2231 32.868 78.2391 33.162 77.0631 33.162C76.1151 33.162 75.2751 32.952 74.5431 32.532C73.8111 32.1 73.2351 31.5 72.8151 30.732C72.4071 29.952 72.2031 29.052 72.2031 28.032ZM87.6041 28.05L92.1761 33H89.4041L85.7321 28.734V33H83.6801V19.68H85.7321V27.42L89.3321 23.082H92.1761L87.6041 28.05Z" fill="#DEEDE6"/>
<defs>
<filter id="filter0_d_480_5616" x="12.1615" y="18.6539" width="30.0769" height="19.4614" filterUnits="userSpaceOnUse" color-interpolation-filters="sRGB">
<feFlood flood-opacity="0" result="BackgroundImageFix"/>
<feColorMatrix in="SourceAlpha" type="matrix" values="0 0 0 0 0 0 0 0 0 0 0 0 0 0 0 0 0 0 127 0" result="hardAlpha"/>
<feOffset dx="-0.3" dy="1"/>
<feGaussianBlur stdDeviation="1.76923"/>
<feComposite in2="hardAlpha" operator="out"/>
<feColorMatrix type="matrix" values="0 0 0 0 1 0 0 0 0 1 0 0 0 0 1 0 0 0 0.25 0"/>
<feBlend mode="normal" in2="BackgroundImageFix" result="effect1_dropShadow_480_5616"/>
<feBlend mode="normal" in="SourceGraphic" in2="effect1_dropShadow_480_5616" result="shape"/>
</filter>
<radialGradient id="paint0_diamond_480_5616" cx="0" cy="0" r="1" gradientUnits="userSpaceOnUse" gradientTransform="translate(26.1731 22.5193) rotate(127.476) scale(16.7202 31.0517)">
<stop stop-color="#C8FFE4" stop-opacity="0.73"/>
<stop offset="1" stop-color="white"/>
</radialGradient>
</defs>
</svg>
