<svg width="127" height="54" viewBox="0 0 127 54" fill="none" xmlns="http://www.w3.org/2000/svg">
<mask id="path-1-inside-1_327_21721" fill="white">
<path fill-rule="evenodd" clip-rule="evenodd" d="M0 54V7.94089L7.94089 0H127V45.3135L118.313 54H0Z"/>
</mask>
<path fill-rule="evenodd" clip-rule="evenodd" d="M0 54V7.94089L7.94089 0H127V45.3135L118.313 54H0Z" fill="white" fill-opacity="0.1"/>
<path d="M0 7.94089L-0.707107 7.23379L-1 7.52668V7.94089H0ZM0 54H-1V55H0V54ZM7.94089 0V-1H7.52668L7.23379 -0.707107L7.94089 0ZM127 0H128V-1H127V0ZM127 45.3135L127.707 46.0206L128 45.7277V45.3135H127ZM118.313 54V55H118.728L119.021 54.7071L118.313 54ZM-1 7.94089V54H1V7.94089H-1ZM7.23379 -0.707107L-0.707107 7.23379L0.707107 8.648L8.648 0.707107L7.23379 -0.707107ZM127 -1H7.94089V1H127V-1ZM128 45.3135V0H126V45.3135H128ZM119.021 54.7071L127.707 46.0206L126.293 44.6064L117.606 53.2929L119.021 54.7071ZM0 55H118.313V53H0V55Z" fill="white" fill-opacity="0.3" mask="url(#path-1-inside-1_327_21721)"/>
<circle cx="28" cy="27" r="9" stroke="white" stroke-width="1.6" stroke-linecap="round" stroke-linejoin="round"/>
<path d="M27 23V28H32" stroke="white" stroke-width="2" stroke-linecap="round" stroke-linejoin="round"/>
<path d="M59.34 20.49V33H57.288V27.528H51.402V33H49.35V20.49H51.402V25.854H57.288V20.49H59.34ZM63.0854 21.768C62.7134 21.768 62.4014 21.642 62.1494 21.39C61.8974 21.138 61.7714 20.826 61.7714 20.454C61.7714 20.082 61.8974 19.77 62.1494 19.518C62.4014 19.266 62.7134 19.14 63.0854 19.14C63.4454 19.14 63.7514 19.266 64.0034 19.518C64.2554 19.77 64.3814 20.082 64.3814 20.454C64.3814 20.826 64.2554 21.138 64.0034 21.39C63.7514 21.642 63.4454 21.768 63.0854 21.768ZM64.0934 23.082V33H62.0414V23.082H64.0934ZM70.3875 33.162C69.6075 33.162 68.9055 33.024 68.2815 32.748C67.6695 32.46 67.1835 32.076 66.8235 31.596C66.4635 31.104 66.2715 30.558 66.2475 29.958H68.3715C68.4075 30.378 68.6055 30.732 68.9655 31.02C69.3375 31.296 69.7995 31.434 70.3515 31.434C70.9275 31.434 71.3715 31.326 71.6835 31.11C72.0075 30.882 72.1695 30.594 72.1695 30.246C72.1695 29.874 71.9895 29.598 71.6295 29.418C71.2815 29.238 70.7235 29.04 69.9555 28.824C69.2115 28.62 68.6055 28.422 68.1375 28.23C67.6695 28.038 67.2615 27.744 66.9135 27.348C66.5775 26.952 66.4095 26.43 66.4095 25.782C66.4095 25.254 66.5655 24.774 66.8775 24.342C67.1895 23.898 67.6335 23.55 68.2095 23.298C68.7975 23.046 69.4695 22.92 70.2255 22.92C71.3535 22.92 72.2595 23.208 72.9435 23.784C73.6395 24.348 74.0115 25.122 74.0595 26.106H72.0075C71.9715 25.662 71.7915 25.308 71.4675 25.044C71.1435 24.78 70.7055 24.648 70.1535 24.648C69.6135 24.648 69.1995 24.75 68.9115 24.954C68.6235 25.158 68.4795 25.428 68.4795 25.764C68.4795 26.028 68.5755 26.25 68.7675 26.43C68.9595 26.61 69.1935 26.754 69.4695 26.862C69.7455 26.958 70.1535 27.084 70.6935 27.24C71.4135 27.432 72.0015 27.63 72.4575 27.834C72.9255 28.026 73.3275 28.314 73.6635 28.698C73.9995 29.082 74.1735 29.592 74.1855 30.228C74.1855 30.792 74.0295 31.296 73.7175 31.74C73.4055 32.184 72.9615 32.532 72.3855 32.784C71.8215 33.036 71.1555 33.162 70.3875 33.162ZM78.7967 24.756V30.246C78.7967 30.618 78.8807 30.888 79.0487 31.056C79.2287 31.212 79.5287 31.29 79.9487 31.29H81.2087V33H79.5887C78.6647 33 77.9567 32.784 77.4647 32.352C76.9727 31.92 76.7267 31.218 76.7267 30.246V24.756H75.5567V23.082H76.7267V20.616H78.7967V23.082H81.2087V24.756H78.7967ZM87.402 33.162C86.466 33.162 85.62 32.952 84.864 32.532C84.108 32.1 83.514 31.5 83.082 30.732C82.65 29.952 82.434 29.052 82.434 28.032C82.434 27.024 82.656 26.13 83.1 25.35C83.544 24.57 84.15 23.97 84.918 23.55C85.686 23.13 86.544 22.92 87.492 22.92C88.44 22.92 89.298 23.13 90.066 23.55C90.834 23.97 91.44 24.57 91.884 25.35C92.328 26.13 92.55 27.024 92.55 28.032C92.55 29.04 92.322 29.934 91.866 30.714C91.41 31.494 90.786 32.1 89.994 32.532C89.214 32.952 88.35 33.162 87.402 33.162ZM87.402 31.38C87.93 31.38 88.422 31.254 88.878 31.002C89.346 30.75 89.724 30.372 90.012 29.868C90.3 29.364 90.444 28.752 90.444 28.032C90.444 27.312 90.306 26.706 90.03 26.214C89.754 25.71 89.388 25.332 88.932 25.08C88.476 24.828 87.984 24.702 87.456 24.702C86.928 24.702 86.436 24.828 85.98 25.08C85.536 25.332 85.182 25.71 84.918 26.214C84.654 26.706 84.522 27.312 84.522 28.032C84.522 29.1 84.792 29.928 85.332 30.516C85.884 31.092 86.574 31.38 87.402 31.38ZM96.6305 24.522C96.9305 24.018 97.3265 23.628 97.8185 23.352C98.3225 23.064 98.9165 22.92 99.6005 22.92V25.044H99.0785C98.2745 25.044 97.6625 25.248 97.2425 25.656C96.8345 26.064 96.6305 26.772 96.6305 27.78V33H94.5785V23.082H96.6305V24.522ZM110.415 23.082L104.331 37.662H102.207L104.223 32.838L100.317 23.082H102.603L105.393 30.642L108.291 23.082H110.415Z" fill="white"/>
</svg>
