<svg xmlns="http://www.w3.org/2000/svg" width="127" height="54" viewBox="0 0 127 54" fill="none">
  <mask id="path-1-inside-1_316_3438" fill="white">
    <path fill-rule="evenodd" clip-rule="evenodd" d="M0 54V7.94089L7.94089 0H127V45.3135L118.313 54H0Z"/>
  </mask>
  <path d="M0 7.94089L-0.707107 7.23379L-1 7.52668V7.94089H0ZM0 54H-1V55H0V54ZM7.94089 0V-1H7.52668L7.23379 -0.707107L7.94089 0ZM127 0H128V-1H127V0ZM127 45.3135L127.707 46.0206L128 45.7277V45.3135H127ZM118.313 54V55H118.728L119.021 54.7071L118.313 54ZM-1 7.94089V54H1V7.94089H-1ZM7.23379 -0.707107L-0.707107 7.23379L0.707107 8.648L8.648 0.707107L7.23379 -0.707107ZM127 -1H7.94089V1H127V-1ZM128 45.3135V0H126V45.3135H128ZM119.021 54.7071L127.707 46.0206L126.293 44.6064L117.606 53.2929L119.021 54.7071ZM0 55H118.313V53H0V55Z" fill="white" mask="url(#path-1-inside-1_316_3438)"/>
</svg>